<?xml version="1.0" encoding="utf-8"?>
<!-- Generator: Adobe Illustrator 16.0.0, SVG Export Plug-In . SVG Version: 6.00 Build 0)  -->
<!DOCTYPE svg PUBLIC "-//W3C//DTD SVG 1.1//EN" "http://www.w3.org/Graphics/SVG/1.1/DTD/svg11.dtd">
<svg version="1.1" id="Calque_1" xmlns="http://www.w3.org/2000/svg" xmlns:xlink="http://www.w3.org/1999/xlink" x="0px" y="0px"
	 width="284px" height="101px" viewBox="0 0 284 101" enable-background="new 0 0 284 101" xml:space="preserve">
<g id="logo">
	<g>
		<path fill="#EA661B" d="M17.5,38.585l-0.69-1.839c-0.848,0.772-1.501,1.499-1.963,2.178c-0.462,0.68-0.95,1.536-1.465,2.57
			c-0.648,1.249-1.152,2.036-1.512,2.364c-0.437,0.398-0.947,0.559-1.534,0.482C9.75,44.263,9.235,43.98,8.79,43.493
			c-0.912-1.001-1.451-2.403-1.613-4.206s0.148-3.46,0.931-4.973c0.979-2.02,2.512-4.322,4.598-6.906
			c2.087-2.583,4.323-4.963,6.711-7.139c2.695-2.457,5.291-4.47,7.784-6.039c2.495-1.567,4.962-2.688,7.403-3.364
			c2.441-0.673,4.864-0.955,7.268-0.843c2.405,0.111,4.707,0.691,6.908,1.739c2.202,1.049,4.157,2.51,5.866,4.384
			c1.543,1.694,2.934,3.905,4.174,6.63c1.238,2.725,2.166,5.638,2.784,8.741c0.619,3.102,0.843,6,0.667,8.697
			c-0.194,3.139-1.06,6.43-2.596,9.875c-1.537,3.445-3.358,6.127-5.462,8.045c-0.899,0.82-1.834,1.379-2.807,1.678
			c-0.973,0.3-1.67,0.219-2.091-0.244c-0.655-0.719-1-1.639-1.034-2.758c-0.034-1.121,0.245-2.798,0.841-5.033
			c0.577-1.842,0.949-3.754,1.116-5.738c-0.003-2.582-0.43-4.944-1.277-7.084c-0.848-2.142-2.278-4.317-4.29-6.525
			c-1.918-2.104-3.904-3.561-5.957-4.37c-2.052-0.809-4.412-1.054-7.082-0.736l10.31,21.905l1.775,3.881
			c0.666,1.556,1.963,4.087,3.89,7.594c3.259,6.101,5.213,10.616,5.864,13.548c0.285,1.292,0.416,2.701,0.394,4.224
			c-0.25,2.201-0.951,4.568-2.102,7.097c-1.15,2.529-2.405,4.412-3.766,5.653c-0.899,0.819-1.852,1.206-2.858,1.159
			c-1.006-0.047-1.942-0.545-2.808-1.494c-0.959-1.053-2.101-2.834-3.422-5.341c-1.323-2.507-3.549-7.13-6.679-13.862l-1.273-2.789
			l-1.409-3.016L17.5,38.585z"/>
		<path fill="#1D1E1C" d="M67.65,77.822c0.551-1.558,1.014-3.188,1.386-4.891c0.372-1.702,0.558-3.008,0.558-3.917
			c0-0.248-0.069-0.373-0.207-0.373c-0.221,0-0.606,0.493-1.157,1.479c-0.551,0.986-1.013,1.988-1.385,3.008
			c-0.8,2.247-1.418,4.112-1.852,5.593c-0.434,1.482-0.734,2.727-0.899,3.732c-0.166,1.006-0.248,2.033-0.248,3.081
			c0,0.896,0.1,1.552,0.3,1.964c0.199,0.414,0.52,0.62,0.961,0.62c0.758,0,1.605-0.333,2.543-1.003
			c0.937-0.668,1.785-1.547,2.542-2.637c0.593-0.813,1.055-1.219,1.386-1.219c0.427,0,0.64,0.338,0.64,1.014
			c0,1.475-0.461,2.915-1.384,4.32c-0.924,1.406-2.113,2.547-3.567,3.422c-1.455,0.875-2.94,1.313-4.456,1.313
			c-1.861,0-3.377-0.587-4.549-1.757c-1.171-1.172-1.757-2.703-1.757-4.59c0-1.545,0.33-3.354,0.993-5.429
			c0.661-2.073,1.546-4.162,2.656-6.265c1.11-2.102,2.327-4.008,3.649-5.717c1.324-1.709,2.633-3.02,3.929-3.928
			c0.798-0.594,1.688-0.89,2.667-0.89c0.745,0,1.419,0.231,2.026,0.692c0.605,0.462,1.075,1.105,1.406,1.934
			c0.331,0.826,0.496,1.744,0.496,2.75c0,2.164-0.424,4.279-1.271,6.348c-0.847,2.066-2.03,3.859-3.546,5.376
			c-0.716,0.729-1.406,1.302-2.068,1.716c-0.661,0.413-1.239,0.619-1.736,0.619c-0.483,0-0.723-0.186-0.723-0.558
			c0-0.206,0.178-0.6,0.538-1.179c0.482-0.758,1.047-1.902,1.696-3.432c0.054-0.152,0.116-0.314,0.185-0.486
			S67.553,78.125,67.65,77.822z"/>
		<path fill="#1D1E1C" d="M90.042,87.271v0.082l-0.083-0.082c-1.282,1.502-2.456,2.731-3.524,3.689
			c-1.068,0.959-2.055,1.68-2.957,2.162c-0.903,0.48-1.733,0.723-2.491,0.723c-1.544,0-2.819-0.517-3.825-1.551
			c-1.005-1.033-1.509-2.344-1.509-3.928c0-0.979,0.248-2.137,0.744-3.475c0.497-1.336,1.179-2.646,2.047-3.928
			c1.447-2.096,3.266-3.873,5.458-5.334c2.26-1.504,4.439-2.254,6.534-2.254c1.765,0,3.215,0.361,4.353,1.086
			c1.137,0.723,1.705,1.636,1.705,2.738c0,0.814-0.282,1.676-0.847,2.584c0.744,0,1.213,0.08,1.406,0.239
			c0.192,0.158,0.289,0.526,0.289,1.106c0-0.057-0.035,0.227-0.103,0.847c-0.083,1.364-0.125,2.641-0.125,3.825
			c0,0.62,0.007,1.089,0.021,1.406c0.013,0.316,0.041,0.682,0.082,1.096c0.042,0.413,0.083,0.744,0.124,0.992
			c0.11,0.648,0.29,1.289,0.539,1.924c-0.828,0.813-1.621,1.408-2.378,1.787c-0.758,0.379-1.53,0.569-2.315,0.569
			c-2.124,0-3.185-1.778-3.185-5.335C90,87.828,90.014,87.505,90.042,87.271z M91.283,82.535l-0.394,0.125
			c-0.992,0.275-1.709,0.414-2.15,0.414c-0.537,0-0.805-0.139-0.805-0.414c0-0.098,0.11-0.352,0.33-0.766
			c0.771-1.172,1.158-2.273,1.158-3.308c0-0.593-0.104-1.134-0.31-1.623c-0.208-0.489-0.436-0.733-0.683-0.733
			c-0.221,0-0.558,0.233-1.013,0.703c-1.282,1.392-2.299,2.818-3.05,4.279c-0.75,1.462-1.126,2.764-1.126,3.908
			c0,0.758,0.154,1.385,0.465,1.881c0.31,0.496,0.7,0.744,1.168,0.744c0.399,0,1.148-0.428,2.243-1.281
			c1.097-0.855,2.327-1.986,3.69-3.391l0.56-0.456L91.283,82.535z"/>
		<path fill="#1D1E1C" d="M108.953,82.387l1.246-1.451c1.26-1.396,2.259-2.438,2.996-3.121c0.736-0.683,1.398-1.177,1.983-1.48
			s1.181-0.456,1.786-0.456c0.978,0,1.666,0.263,2.065,0.786c0.4,0.524,0.6,1.434,0.6,2.729c0,0.539-0.056,1.33-0.165,2.379
			c-0.166,1.391-0.248,2.701-0.248,3.928c0,1.379,0.069,2.494,0.207,3.35c0.095,0.523,0.24,1.048,0.434,1.571
			c0.137,0.497,0.206,0.833,0.206,1.013c0,0.221-0.082,0.393-0.247,0.518c-0.427,0.371-0.993,0.695-1.696,0.973
			c-0.702,0.275-1.296,0.412-1.778,0.412c-0.786,0-1.5-0.268-2.141-0.807c-0.641-0.537-1.137-1.281-1.488-2.232
			c-0.352-0.951-0.527-2.026-0.527-3.225c0-0.799,0.082-1.744,0.248-2.834l-0.083-0.082c-0.592,0.662-1.072,1.186-1.437,1.571
			c-0.366,0.386-0.706,0.751-1.023,1.097c-1.544,1.764-2.854,3.356-3.928,4.775c-0.413,0.551-0.793,1.033-1.137,1.447
			c-0.51,0.51-1.089,0.766-1.737,0.766c-0.881,0-1.599-0.332-2.15-0.992c-0.551-0.662-0.826-1.518-0.826-2.564
			c0-0.648,0.075-1.441,0.228-2.379c0.151-0.937,0.354-1.938,0.61-3.008c0.255-1.068,0.558-2.167,0.909-3.297
			c0.352-1.131,0.733-2.205,1.147-3.227c0.634-1.695,1.406-3.018,2.316-3.969c0.621-0.621,1.372-0.931,2.254-0.931
			c1.434,0,2.15,0.931,2.15,2.792c0,1.363-0.285,3.318-0.855,5.865L108.953,82.387z"/>
		<path fill="#1D1E1C" d="M135.466,72.488c2.054,0,3.081,0.24,3.081,0.723c0,0.551-0.462,0.848-1.385,0.89
			c-1.116,0.068-2.158,0.386-3.123,0.95c-0.965,0.566-1.823,1.338-2.574,2.316c-0.751,0.979-1.336,2.082-1.757,3.308
			c-0.422,1.228-0.631,2.522-0.631,3.888c0,1.502,0.35,2.711,1.054,3.629c0.703,0.916,1.619,1.375,2.75,1.375
			c1.048,0,1.964-0.538,2.75-1.613c0.785-1.075,1.178-2.329,1.178-3.764c0-1.171-0.244-2.27-0.734-3.297
			c-0.489-1.027-1.203-1.893-2.14-2.596c-0.399-0.316-0.599-0.545-0.599-0.682c0-0.193,0.282-0.489,0.848-0.889
			c0.633-0.428,1.344-0.786,2.13-1.075c0.786-0.29,1.447-0.435,1.985-0.435c0.619,0,1.209,0.162,1.767,0.485
			c0.558,0.324,1.052,0.786,1.478,1.386c0.428,0.6,0.754,1.289,0.982,2.068c0.229,0.778,0.341,1.607,0.341,2.49
			c0,1.462-0.276,2.905-0.827,4.332s-1.274,2.582-2.169,3.463c-1.16,1.117-2.554,2.029-4.188,2.74
			c-1.633,0.709-3.187,1.064-4.662,1.064c-1.433,0-2.857-0.248-4.269-0.744c-1.413-0.496-2.533-1.15-3.36-1.964
			c-1.103-1.103-1.654-2.667-1.654-4.694c0-1.599,0.394-3.197,1.18-4.797c0.786-1.598,1.85-3.049,3.194-4.352
			c1.343-1.303,2.825-2.33,4.444-3.081C132.176,72.863,133.813,72.488,135.466,72.488z"/>
		<path fill="#1D1E1C" d="M147.66,93.494c-0.619-0.041-1.183-0.324-1.692-0.848c-0.509-0.551-0.87-1.147-1.083-1.789
			c-0.213-0.641-0.32-1.471-0.32-2.49c0-2.275,0.424-4.843,1.271-7.703c0.848-2.859,1.81-4.931,2.885-6.213
			c0.427-0.537,1.019-0.806,1.777-0.806c0.799,0,1.442,0.364,1.933,1.095c0.489,0.732,0.734,1.689,0.734,2.875
			c0,1.75-0.253,3.801-0.757,6.15s-1.212,4.793-2.124,7.328c-0.357,1.021-0.798,1.711-1.322,2.069
			c-0.357,0.222-0.776,0.331-1.258,0.331H147.66z M150.146,72.715c-1.296-0.041-1.943-0.82-1.943-2.336
			c0-0.758,0.189-1.637,0.568-2.636c0.379-1.001,0.81-1.741,1.292-2.224c0.249-0.262,0.499-0.447,0.755-0.558
			c0.254-0.11,0.582-0.166,0.981-0.166c0.69,0,1.196,0.169,1.521,0.507c0.322,0.338,0.485,0.898,0.485,1.686
			c0,0.979-0.168,1.904-0.505,2.781c-0.339,0.875-0.791,1.584-1.354,2.129c-0.565,0.545-1.146,0.816-1.737,0.816H150.146z"/>
		<path fill="#EA661B" d="M161.209,80.034c-1.187-1.199-2.021-2.265-2.502-3.194c-0.484-0.931-0.725-1.927-0.725-2.987
			c0-1.599,0.485-3.102,1.458-4.508c0.972-1.405,2.274-2.521,3.908-3.35c1.633-0.826,3.387-1.24,5.262-1.24
			c2.122,0,3.755,0.44,4.899,1.323c1.144,0.882,1.717,2.129,1.717,3.742c0,0.771-0.207,1.571-0.621,2.398
			c-0.412,0.827-0.984,1.6-1.715,2.316c-0.497,0.496-0.959,0.872-1.387,1.125c-0.426,0.256-0.785,0.384-1.074,0.384
			c-0.359,0-0.537-0.276-0.537-0.827c0,0.014,0.027-0.2,0.082-0.641c0.082-0.648,0.125-1.227,0.125-1.736
			c0-0.718-0.107-1.438-0.321-2.161s-0.489-1.33-0.827-1.819c-0.338-0.49-0.658-0.734-0.961-0.734c-0.152,0-0.324,0.117-0.518,0.352
			c-0.373,0.387-0.661,0.866-0.869,1.439c-0.206,0.572-0.309,1.107-0.309,1.604c0,0.621,0.088,1.197,0.265,1.729
			c0.177,0.532,0.487,1.073,0.929,1.623c0.441,0.551,1.028,1.156,1.761,1.816c1.159,1.046,2.052,1.961,2.68,2.747
			c0.627,0.786,1.085,1.569,1.374,2.347c0.29,0.779,0.435,1.623,0.435,2.533c0,1.6-0.421,3.143-1.261,4.631
			c-0.842,1.488-1.954,2.691-3.339,3.608c-1.386,0.917-2.815,1.374-4.29,1.374c-1.406,0-2.779-0.303-4.115-0.908
			c-1.338-0.607-2.592-1.476-3.764-2.605c-1.212-1.199-1.818-2.262-1.818-3.185c0-0.565,0.268-1.116,0.807-1.654
			c0.551-0.552,1.229-1.02,2.036-1.406c0.806-0.386,1.485-0.579,2.036-0.579c0.316,0,0.586,0.08,0.807,0.238
			c0.221,0.159,0.416,0.428,0.59,0.807c0.172,0.379,0.34,0.893,0.505,1.54c0.263,0.924,0.504,1.61,0.726,2.058
			c0.219,0.448,0.529,0.893,0.93,1.334c0.412,0.412,0.848,0.62,1.303,0.62c0.551,0,0.985-0.218,1.303-0.652
			c0.315-0.435,0.475-1.03,0.475-1.79c0-1.185-0.418-2.371-1.259-3.559c-0.247-0.399-0.519-0.754-0.815-1.064
			c-0.295-0.311-0.94-0.906-1.935-1.787C162.354,81.087,161.871,80.652,161.209,80.034z"/>
		<path fill="#EA661B" d="M190.961,87.271v0.082l-0.083-0.082c-1.282,1.502-2.457,2.731-3.525,3.689
			c-1.068,0.959-2.054,1.68-2.956,2.162c-0.903,0.48-1.734,0.723-2.492,0.723c-1.543,0-2.818-0.517-3.825-1.551
			c-1.006-1.033-1.509-2.344-1.509-3.928c0-0.979,0.248-2.137,0.744-3.475c0.496-1.336,1.18-2.646,2.047-3.928
			c1.447-2.096,3.268-3.873,5.459-5.334c2.26-1.504,4.438-2.254,6.533-2.254c1.764,0,3.215,0.361,4.352,1.086
			c1.138,0.723,1.707,1.636,1.707,2.738c0,0.814-0.283,1.676-0.848,2.584c0.744,0,1.211,0.08,1.406,0.239
			c0.192,0.158,0.289,0.526,0.289,1.106c0-0.057-0.035,0.227-0.104,0.847c-0.082,1.364-0.124,2.641-0.124,3.825
			c0,0.62,0.008,1.089,0.021,1.406c0.014,0.316,0.041,0.682,0.082,1.096c0.041,0.413,0.082,0.744,0.125,0.992
			c0.109,0.648,0.289,1.289,0.537,1.924c-0.826,0.813-1.619,1.408-2.379,1.787c-0.757,0.379-1.529,0.569-2.314,0.569
			c-2.123,0-3.185-1.778-3.185-5.335C190.919,87.828,190.934,87.505,190.961,87.271z M192.2,82.535l-0.392,0.125
			c-0.993,0.275-1.709,0.414-2.15,0.414c-0.538,0-0.807-0.139-0.807-0.414c0-0.098,0.111-0.352,0.33-0.766
			c0.772-1.172,1.158-2.273,1.158-3.308c0-0.593-0.104-1.134-0.311-1.623c-0.205-0.489-0.434-0.733-0.682-0.733
			c-0.221,0-0.559,0.233-1.014,0.703c-1.281,1.392-2.297,2.818-3.049,4.279c-0.752,1.462-1.127,2.764-1.127,3.908
			c0,0.758,0.154,1.385,0.465,1.881s0.699,0.744,1.169,0.744c0.399,0,1.147-0.428,2.243-1.281c1.096-0.855,2.326-1.986,3.69-3.391
			l0.558-0.456L192.2,82.535z"/>
		<path fill="#EA661B" d="M211.492,73.336c1.047,0.041,1.881,0.344,2.502,0.909c0.619,0.564,0.93,1.323,0.93,2.274
			c0,0.827-0.238,1.66-0.714,2.502c-0.476,0.84-1.074,1.529-1.798,2.067c-0.724,0.537-1.451,0.806-2.183,0.806
			c-0.427,0-0.64-0.151-0.64-0.455c0-0.109,0.082-0.351,0.246-0.723c0.539-0.91,0.808-1.957,0.808-3.143
			c0-0.594-0.068-0.889-0.206-0.889c-0.193,0-0.47,0.248-0.827,0.744c-0.358,0.495-0.662,1.081-0.91,1.758
			c-0.427,1.061-0.782,2.191-1.064,3.39c-0.282,1.199-0.424,2.213-0.424,3.04c0,0.938,0.142,1.674,0.424,2.211
			c0.282,0.539,0.679,0.807,1.188,0.807c0.469,0,1.096-0.247,1.881-0.744c0.787-0.496,1.531-1.109,2.234-1.84
			c0.289-0.371,0.544-0.558,0.766-0.558c0.33,0,0.495,0.187,0.495,0.558c0,1.695-0.662,3.232-1.985,4.61
			c-0.909,0.911-1.953,1.646-3.132,2.202c-1.179,0.559-2.237,0.838-3.173,0.838c-1.641,0-3.006-0.517-4.096-1.551
			c-1.088-1.033-1.633-2.336-1.633-3.908c0-1.571,0.348-3.223,1.045-4.952c0.695-1.729,1.647-3.372,2.854-4.931
			c1.205-1.557,2.573-2.86,4.104-3.908c1.103-0.743,2.178-1.115,3.227-1.115H211.492z"/>
		<path fill="#EA661B" d="M220.383,73.293l0.082-0.247c0.912-2.564,1.697-4.37,2.359-5.417c0.318-0.496,0.76-0.938,1.326-1.323
			c1.063-0.676,2.063-1.013,3.002-1.013c0.551,0,0.973,0.123,1.262,0.372s0.434,0.607,0.434,1.076c0,0.317-0.207,0.965-0.623,1.942
			c-0.707,1.626-1.234,3.148-1.58,4.567c0.233,0.028,0.461,0.07,0.684,0.124c0.826,0.125,1.371,0.267,1.635,0.426
			c0.262,0.158,0.393,0.443,0.393,0.857c0,0.73-0.186,1.406-0.559,2.027c-0.371,0.621-0.859,1.074-1.467,1.365
			c-0.454,0.205-1.189,0.344-2.211,0.412c-0.176,0.539-0.375,1.275-0.592,2.213c-0.123,0.828-0.26,1.973-0.409,3.435
			c-0.083,0.538-0.125,1.04-0.125,1.509c0,2.178,1.056,3.264,3.165,3.264h0.123h0.063c0.248,0,0.372,0.042,0.372,0.125
			c0,0.22-0.234,0.593-0.702,1.115c-0.471,0.525-0.986,0.986-1.553,1.387c-0.606,0.412-1.268,0.744-1.985,0.992
			s-1.367,0.371-1.947,0.371c-1.45,0-2.626-0.488-3.532-1.467c-0.903-0.979-1.356-2.274-1.356-3.887c0-0.689,0.12-1.593,0.362-2.709
			c0.241-1.116,0.617-2.612,1.127-4.486c0.082-0.331,0.172-0.68,0.268-1.045c0.098-0.365,0.153-0.582,0.166-0.65
			c-0.551-0.015-0.943-0.132-1.178-0.352c-0.234-0.221-0.352-0.579-0.352-1.076c0-0.867,0.334-1.688,1.003-2.461
			C218.704,73.969,219.486,73.486,220.383,73.293z"/>
		<path fill="#EA661B" d="M234.066,93.494c-0.619-0.041-1.186-0.324-1.694-0.848c-0.509-0.551-0.87-1.147-1.084-1.789
			c-0.214-0.641-0.319-1.471-0.319-2.49c0-2.275,0.424-4.843,1.271-7.703c0.847-2.859,1.809-4.931,2.883-6.213
			c0.429-0.537,1.021-0.806,1.777-0.806c0.801,0,1.445,0.364,1.933,1.095c0.49,0.732,0.734,1.689,0.734,2.875
			c0,1.75-0.252,3.801-0.756,6.15s-1.212,4.793-2.124,7.328c-0.357,1.021-0.798,1.711-1.32,2.069
			c-0.359,0.222-0.779,0.331-1.26,0.331H234.066z M236.551,72.715c-1.297-0.041-1.943-0.82-1.943-2.336
			c0-0.758,0.189-1.637,0.568-2.636c0.379-1.001,0.809-1.741,1.292-2.224c0.249-0.262,0.5-0.447,0.755-0.558
			c0.256-0.11,0.582-0.166,0.982-0.166c0.688,0,1.197,0.169,1.519,0.507c0.325,0.338,0.486,0.898,0.486,1.686
			c0,0.979-0.169,1.904-0.506,2.781c-0.339,0.875-0.79,1.584-1.354,2.129s-1.144,0.816-1.738,0.816H236.551z"/>
		<path fill="#EA661B" d="M254.311,75.795l0.331-0.641c0.346-0.717,0.631-1.191,0.858-1.426s0.535-0.352,0.92-0.352
			c1.131,0,1.696,1.275,1.696,3.824c0,0.744-0.056,1.386-0.167,1.924c-0.109,0.537-0.295,1.054-0.557,1.55
			c-0.316,0.662-0.745,1.417-1.281,2.265c-0.539,0.848-1.148,1.744-1.832,2.688c-0.682,0.945-1.409,1.893-2.18,2.843
			c-1.379,1.751-2.543,3.032-3.494,3.845c-0.951,0.814-1.75,1.221-2.398,1.221c-1.2,0-2.055-0.73-2.564-2.191
			c-0.359-0.923-0.686-2.04-0.982-3.35c-0.296-1.309-0.527-2.637-0.692-3.98s-0.247-2.643-0.247-3.896
			c0-1.737,0.153-3.202,0.465-4.395c0.311-1.191,0.732-1.974,1.271-2.346c0.482-0.275,0.992-0.413,1.529-0.413
			c0.634,0,1.23,0.099,1.789,0.299s0.994,0.493,1.313,0.879c0.289,0.29,0.507,0.673,0.652,1.147c0.144,0.476,0.24,1.199,0.288,2.171
			s0.071,2.313,0.071,4.021v1.054v1.985v2.337h0.084c0.263-0.593,0.477-1.047,0.641-1.364c0.442-0.868,1.297-2.702,2.564-5.5
			c0.262-0.593,0.758-1.696,1.488-3.308L254.311,75.795z"/>
	</g>
	<g>
		<path fill="#1D1E1C" d="M267.087,76.77h-0.083c-0.412,0-0.783-0.165-1.113-0.494c-0.331-0.332-0.496-0.688-0.496-1.074
			c0-0.385,0.165-0.838,0.496-1.361c0.578-0.963,0.866-1.871,0.866-2.725c0-0.798-0.187-1.492-0.558-2.084s-0.984-1.218-1.836-1.878
			c-0.799-0.661-1.321-1.19-1.568-1.589c-0.248-0.398-0.372-0.86-0.372-1.383c0-0.716,0.344-1.417,1.032-2.104
			c0.799-0.771,1.852-1.485,3.157-2.146c1.307-0.662,2.276-0.992,2.911-0.992c0.934,0,1.821,0.345,2.66,1.033
			c0.84,0.688,1.507,1.615,2.003,2.785c0.495,1.17,0.742,2.346,0.742,3.529c0,2.559-1.376,5.242-4.128,8.048
			C269.26,75.876,268.021,76.688,267.087,76.77z"/>
	</g>
</g>
</svg>
