<?xml version="1.0" encoding="utf-8"?>
<!-- Generator: Adobe Illustrator 16.0.0, SVG Export Plug-In . SVG Version: 6.00 Build 0)  -->
<!DOCTYPE svg PUBLIC "-//W3C//DTD SVG 1.1//EN" "http://www.w3.org/Graphics/SVG/1.1/DTD/svg11.dtd">
<svg version="1.1" id="Calque_1" xmlns="http://www.w3.org/2000/svg" xmlns:xlink="http://www.w3.org/1999/xlink" x="0px" y="0px"
	 width="284px" height="101px" viewBox="0 0 284 101" enable-background="new 0 0 284 101" xml:space="preserve">
<g id="logo" display="none">
	<g display="inline">
		<path fill="#EA661B" d="M17.5,38.585l-0.69-1.839c-0.848,0.772-1.501,1.499-1.963,2.178c-0.462,0.68-0.95,1.536-1.465,2.57
			c-0.648,1.249-1.152,2.036-1.512,2.364c-0.437,0.398-0.947,0.559-1.534,0.482c-0.586-0.077-1.101-0.36-1.546-0.847
			c-0.912-1.001-1.451-2.403-1.613-4.206c-0.162-1.803,0.148-3.46,0.931-4.973c0.979-2.02,2.512-4.322,4.598-6.906
			c2.087-2.583,4.323-4.963,6.711-7.139c2.695-2.457,5.291-4.47,7.784-6.039c2.495-1.567,4.962-2.688,7.403-3.364
			c2.441-0.673,4.864-0.955,7.268-0.843c2.405,0.111,4.707,0.691,6.908,1.739c2.202,1.049,4.157,2.51,5.866,4.384
			c1.543,1.694,2.934,3.905,4.174,6.63c1.238,2.725,2.166,5.638,2.784,8.741c0.619,3.102,0.843,6,0.667,8.697
			c-0.194,3.139-1.06,6.43-2.596,9.875c-1.537,3.445-3.358,6.127-5.462,8.045c-0.899,0.82-1.834,1.38-2.807,1.679
			c-0.973,0.299-1.67,0.219-2.091-0.244c-0.655-0.719-1-1.639-1.034-2.758c-0.034-1.121,0.245-2.799,0.841-5.033
			c0.577-1.842,0.949-3.754,1.116-5.738c-0.003-2.582-0.43-4.944-1.277-7.084c-0.848-2.142-2.278-4.317-4.29-6.525
			c-1.918-2.104-3.904-3.561-5.957-4.37c-2.052-0.809-4.412-1.054-7.082-0.736l10.31,21.905l1.775,3.88
			c0.666,1.557,1.963,4.088,3.89,7.595c3.259,6.101,5.213,10.616,5.864,13.548c0.285,1.292,0.416,2.701,0.394,4.225
			c-0.25,2.2-0.951,4.567-2.102,7.097c-1.15,2.528-2.405,4.411-3.766,5.653c-0.899,0.818-1.852,1.205-2.858,1.158
			c-1.006-0.047-1.942-0.545-2.808-1.494c-0.959-1.053-2.101-2.834-3.422-5.341c-1.323-2.507-3.549-7.13-6.679-13.862l-1.273-2.789
			l-1.409-3.016L17.5,38.585z"/>
		<path fill="#1D1E1C" d="M67.65,77.822c0.551-1.559,1.014-3.188,1.386-4.891c0.372-1.703,0.558-3.009,0.558-3.918
			c0-0.248-0.069-0.373-0.207-0.373c-0.221,0-0.606,0.493-1.157,1.479c-0.551,0.985-1.013,1.987-1.385,3.008
			c-0.8,2.247-1.418,4.112-1.852,5.593c-0.434,1.482-0.734,2.728-0.899,3.732c-0.166,1.006-0.248,2.033-0.248,3.081
			c0,0.896,0.1,1.552,0.3,1.964c0.199,0.414,0.52,0.62,0.961,0.62c0.758,0,1.605-0.333,2.543-1.003
			c0.937-0.668,1.785-1.547,2.542-2.637c0.593-0.813,1.055-1.22,1.386-1.22c0.427,0,0.64,0.339,0.64,1.015
			c0,1.475-0.461,2.914-1.384,4.319c-0.924,1.406-2.113,2.548-3.567,3.423c-1.455,0.875-2.94,1.313-4.456,1.313
			c-1.861,0-3.377-0.587-4.549-1.758c-1.171-1.172-1.757-2.702-1.757-4.59c0-1.545,0.33-3.354,0.993-5.429
			c0.661-2.073,1.546-4.161,2.656-6.265c1.11-2.102,2.327-4.008,3.649-5.717c1.324-1.709,2.633-3.021,3.929-3.928
			c0.798-0.595,1.688-0.891,2.667-0.891c0.745,0,1.419,0.23,2.026,0.691c0.605,0.463,1.075,1.105,1.406,1.935
			c0.331,0.826,0.496,1.744,0.496,2.75c0,2.164-0.424,4.279-1.271,6.349c-0.847,2.065-2.03,3.858-3.546,5.375
			c-0.716,0.729-1.406,1.303-2.068,1.717c-0.661,0.412-1.239,0.619-1.736,0.619c-0.483,0-0.723-0.187-0.723-0.559
			c0-0.206,0.178-0.6,0.538-1.179c0.482-0.759,1.047-1.902,1.696-3.433c0.054-0.151,0.116-0.313,0.185-0.485
			C67.471,78.359,67.553,78.125,67.65,77.822z"/>
		<path fill="#1D1E1C" d="M90.042,87.271v0.082l-0.083-0.082c-1.282,1.502-2.456,2.73-3.524,3.688
			c-1.068,0.959-2.055,1.681-2.957,2.162c-0.903,0.479-1.733,0.724-2.491,0.724c-1.544,0-2.819-0.518-3.825-1.552
			c-1.005-1.033-1.509-2.344-1.509-3.928c0-0.979,0.248-2.138,0.744-3.476c0.497-1.336,1.179-2.646,2.047-3.928
			c1.447-2.096,3.266-3.873,5.458-5.334c2.26-1.504,4.439-2.254,6.534-2.254c1.765,0,3.215,0.361,4.353,1.086
			c1.137,0.723,1.705,1.637,1.705,2.738c0,0.814-0.282,1.676-0.847,2.584c0.744,0,1.213,0.08,1.406,0.238
			c0.192,0.158,0.289,0.526,0.289,1.106c0-0.058-0.035,0.228-0.103,0.847c-0.083,1.364-0.125,2.642-0.125,3.825
			c0,0.62,0.007,1.089,0.021,1.406c0.013,0.315,0.041,0.683,0.082,1.096c0.042,0.413,0.083,0.744,0.124,0.992
			c0.11,0.647,0.29,1.289,0.539,1.924c-0.828,0.813-1.621,1.408-2.378,1.787c-0.758,0.379-1.53,0.569-2.315,0.569
			c-2.124,0-3.185-1.778-3.185-5.335C90,87.828,90.014,87.505,90.042,87.271z M91.283,82.535l-0.394,0.125
			c-0.992,0.275-1.709,0.414-2.15,0.414c-0.537,0-0.805-0.139-0.805-0.414c0-0.098,0.11-0.352,0.33-0.766
			c0.771-1.172,1.158-2.273,1.158-3.309c0-0.593-0.104-1.134-0.31-1.623c-0.208-0.488-0.436-0.732-0.683-0.732
			c-0.221,0-0.558,0.232-1.013,0.703c-1.282,1.392-2.299,2.817-3.05,4.278c-0.75,1.462-1.126,2.765-1.126,3.908
			c0,0.758,0.154,1.385,0.465,1.881c0.31,0.496,0.7,0.744,1.168,0.744c0.399,0,1.148-0.429,2.243-1.281
			c1.097-0.854,2.327-1.985,3.69-3.391l0.56-0.456L91.283,82.535z"/>
		<path fill="#1D1E1C" d="M108.953,82.387l1.246-1.451c1.26-1.396,2.259-2.438,2.996-3.121c0.736-0.683,1.398-1.176,1.983-1.479
			c0.585-0.303,1.181-0.456,1.786-0.456c0.978,0,1.666,0.264,2.065,0.786c0.4,0.524,0.6,1.435,0.6,2.729
			c0,0.539-0.056,1.33-0.165,2.379c-0.166,1.391-0.248,2.701-0.248,3.928c0,1.379,0.069,2.494,0.207,3.35
			c0.095,0.523,0.24,1.049,0.434,1.571c0.137,0.497,0.206,0.833,0.206,1.013c0,0.221-0.082,0.393-0.247,0.518
			c-0.427,0.371-0.993,0.695-1.696,0.974c-0.702,0.274-1.296,0.412-1.778,0.412c-0.786,0-1.5-0.269-2.141-0.808
			c-0.641-0.537-1.137-1.28-1.488-2.231c-0.352-0.951-0.527-2.026-0.527-3.226c0-0.799,0.082-1.744,0.248-2.834l-0.083-0.082
			c-0.592,0.662-1.072,1.187-1.437,1.572c-0.366,0.385-0.706,0.75-1.023,1.096c-1.544,1.765-2.854,3.356-3.928,4.775
			c-0.413,0.551-0.793,1.033-1.137,1.447c-0.51,0.51-1.089,0.766-1.737,0.766c-0.881,0-1.599-0.332-2.15-0.992
			c-0.551-0.662-0.826-1.518-0.826-2.563c0-0.647,0.075-1.44,0.228-2.379c0.151-0.937,0.354-1.938,0.61-3.009
			c0.255-1.067,0.558-2.166,0.909-3.297c0.352-1.131,0.733-2.205,1.147-3.227c0.634-1.695,1.406-3.018,2.316-3.969
			c0.621-0.621,1.372-0.932,2.254-0.932c1.434,0,2.15,0.932,2.15,2.793c0,1.362-0.285,3.317-0.855,5.865L108.953,82.387z"/>
		<path fill="#1D1E1C" d="M135.466,72.488c2.054,0,3.081,0.24,3.081,0.723c0,0.551-0.462,0.848-1.385,0.891
			c-1.116,0.067-2.158,0.385-3.123,0.949c-0.965,0.566-1.823,1.338-2.574,2.316s-1.336,2.082-1.757,3.308
			c-0.422,1.228-0.631,2.522-0.631,3.888c0,1.502,0.35,2.711,1.054,3.629c0.703,0.916,1.619,1.375,2.75,1.375
			c1.048,0,1.964-0.537,2.75-1.612c0.785-1.075,1.178-2.329,1.178-3.765c0-1.17-0.244-2.27-0.734-3.297
			c-0.489-1.026-1.203-1.893-2.14-2.596c-0.399-0.316-0.599-0.545-0.599-0.682c0-0.193,0.282-0.489,0.848-0.889
			c0.633-0.429,1.344-0.787,2.13-1.076s1.447-0.435,1.985-0.435c0.619,0,1.209,0.162,1.767,0.485
			c0.558,0.324,1.052,0.785,1.478,1.386c0.428,0.601,0.754,1.289,0.981,2.068c0.229,0.778,0.342,1.606,0.342,2.489
			c0,1.463-0.276,2.905-0.827,4.332c-0.551,1.428-1.274,2.582-2.169,3.463c-1.16,1.117-2.554,2.029-4.188,2.74
			c-1.633,0.709-3.187,1.064-4.662,1.064c-1.433,0-2.857-0.248-4.269-0.744c-1.413-0.496-2.533-1.15-3.36-1.964
			c-1.103-1.103-1.654-2.667-1.654-4.694c0-1.599,0.394-3.197,1.18-4.797c0.786-1.598,1.85-3.049,3.194-4.352
			c1.343-1.303,2.825-2.33,4.444-3.082C132.176,72.863,133.813,72.488,135.466,72.488z"/>
		<path fill="#1D1E1C" d="M147.66,93.494c-0.619-0.041-1.184-0.324-1.692-0.848c-0.509-0.552-0.87-1.147-1.083-1.789
			s-0.32-1.472-0.32-2.49c0-2.275,0.424-4.844,1.271-7.703s1.811-4.932,2.885-6.213c0.428-0.537,1.02-0.807,1.777-0.807
			c0.799,0,1.441,0.364,1.934,1.096c0.488,0.732,0.733,1.689,0.733,2.875c0,1.75-0.253,3.801-0.757,6.15
			c-0.504,2.349-1.213,4.793-2.124,7.327c-0.357,1.021-0.798,1.712-1.322,2.069c-0.356,0.222-0.776,0.331-1.258,0.331L147.66,93.494
			L147.66,93.494z M150.146,72.715c-1.297-0.041-1.943-0.82-1.943-2.336c0-0.758,0.189-1.637,0.568-2.636
			c0.379-1.001,0.81-1.741,1.291-2.224c0.25-0.263,0.5-0.447,0.756-0.559c0.254-0.109,0.582-0.166,0.98-0.166
			c0.69,0,1.196,0.169,1.521,0.507c0.322,0.339,0.484,0.898,0.484,1.687c0,0.979-0.168,1.904-0.505,2.781
			c-0.339,0.875-0.791,1.584-1.354,2.129c-0.564,0.545-1.146,0.815-1.736,0.815L150.146,72.715L150.146,72.715z"/>
		<path fill="#EA661B" d="M161.209,80.034c-1.188-1.199-2.021-2.265-2.502-3.194c-0.484-0.931-0.725-1.927-0.725-2.986
			c0-1.6,0.484-3.103,1.457-4.509c0.973-1.405,2.274-2.521,3.908-3.35c1.633-0.826,3.387-1.24,5.262-1.24
			c2.123,0,3.756,0.44,4.899,1.323c1.144,0.882,1.718,2.129,1.718,3.742c0,0.771-0.207,1.57-0.621,2.397
			c-0.412,0.827-0.984,1.601-1.715,2.316c-0.498,0.496-0.959,0.872-1.388,1.125c-0.426,0.256-0.785,0.384-1.073,0.384
			c-0.359,0-0.537-0.275-0.537-0.827c0,0.015,0.026-0.2,0.082-0.641c0.082-0.648,0.125-1.228,0.125-1.736
			c0-0.718-0.107-1.438-0.322-2.161c-0.213-0.723-0.488-1.33-0.826-1.818c-0.338-0.49-0.658-0.734-0.961-0.734
			c-0.152,0-0.324,0.117-0.518,0.352c-0.373,0.388-0.662,0.866-0.869,1.439c-0.207,0.572-0.31,1.107-0.31,1.604
			c0,0.621,0.088,1.197,0.265,1.729c0.178,0.532,0.487,1.073,0.93,1.623c0.441,0.551,1.027,1.155,1.761,1.815
			c1.159,1.047,2.052,1.961,2.681,2.748c0.627,0.785,1.084,1.568,1.373,2.347c0.29,0.778,0.436,1.622,0.436,2.532
			c0,1.601-0.422,3.144-1.262,4.631c-0.842,1.488-1.953,2.691-3.338,3.608c-1.387,0.917-2.816,1.374-4.291,1.374
			c-1.406,0-2.779-0.303-4.115-0.908c-1.338-0.606-2.592-1.476-3.764-2.604c-1.212-1.199-1.818-2.263-1.818-3.185
			c0-0.565,0.269-1.116,0.808-1.654c0.551-0.553,1.229-1.02,2.036-1.406c0.806-0.386,1.484-0.579,2.035-0.579
			c0.316,0,0.587,0.08,0.808,0.238c0.222,0.159,0.416,0.428,0.59,0.807c0.173,0.38,0.341,0.894,0.505,1.54
			c0.264,0.924,0.504,1.61,0.727,2.059c0.219,0.447,0.529,0.893,0.93,1.334c0.412,0.412,0.848,0.619,1.303,0.619
			c0.551,0,0.985-0.218,1.303-0.651c0.315-0.435,0.476-1.03,0.476-1.79c0-1.186-0.418-2.371-1.259-3.559
			c-0.247-0.399-0.52-0.754-0.815-1.064c-0.295-0.311-0.94-0.906-1.935-1.787C162.354,81.087,161.871,80.652,161.209,80.034z"/>
		<path fill="#EA661B" d="M190.961,87.271v0.082l-0.083-0.082c-1.282,1.502-2.457,2.73-3.524,3.688
			c-1.068,0.959-2.055,1.681-2.957,2.162c-0.902,0.479-1.733,0.724-2.492,0.724c-1.543,0-2.817-0.518-3.824-1.552
			c-1.006-1.033-1.51-2.344-1.51-3.928c0-0.979,0.248-2.138,0.744-3.476c0.496-1.336,1.181-2.646,2.047-3.928
			c1.447-2.096,3.269-3.873,5.459-5.334c2.261-1.504,4.438-2.254,6.533-2.254c1.765,0,3.215,0.361,4.353,1.086
			c1.138,0.723,1.707,1.637,1.707,2.738c0,0.814-0.283,1.676-0.849,2.584c0.744,0,1.211,0.08,1.406,0.238
			c0.192,0.158,0.289,0.526,0.289,1.106c0-0.058-0.035,0.228-0.104,0.847c-0.082,1.364-0.124,2.642-0.124,3.825
			c0,0.62,0.008,1.089,0.021,1.406c0.014,0.315,0.041,0.683,0.082,1.096s0.082,0.744,0.125,0.992
			c0.109,0.647,0.289,1.289,0.537,1.924c-0.826,0.813-1.619,1.408-2.379,1.787c-0.757,0.379-1.529,0.569-2.314,0.569
			c-2.123,0-3.185-1.778-3.185-5.335C190.919,87.828,190.934,87.505,190.961,87.271z M192.2,82.535l-0.392,0.125
			c-0.994,0.275-1.709,0.414-2.15,0.414c-0.538,0-0.807-0.139-0.807-0.414c0-0.098,0.11-0.352,0.33-0.766
			c0.771-1.172,1.157-2.273,1.157-3.309c0-0.593-0.104-1.134-0.312-1.623c-0.204-0.488-0.434-0.732-0.682-0.732
			c-0.221,0-0.559,0.232-1.014,0.703c-1.281,1.392-2.297,2.817-3.049,4.278c-0.752,1.462-1.127,2.765-1.127,3.908
			c0,0.758,0.154,1.385,0.465,1.881s0.699,0.744,1.169,0.744c0.399,0,1.147-0.429,2.243-1.281c1.096-0.854,2.326-1.985,3.689-3.391
			l0.559-0.456L192.2,82.535z"/>
		<path fill="#EA661B" d="M211.492,73.336c1.047,0.041,1.881,0.344,2.502,0.909c0.619,0.563,0.93,1.323,0.93,2.274
			c0,0.826-0.238,1.66-0.714,2.502c-0.476,0.84-1.074,1.528-1.798,2.066c-0.725,0.537-1.451,0.807-2.184,0.807
			c-0.427,0-0.64-0.151-0.64-0.455c0-0.109,0.082-0.352,0.246-0.724c0.539-0.909,0.808-1.957,0.808-3.143
			c0-0.595-0.067-0.89-0.205-0.89c-0.193,0-0.471,0.248-0.828,0.744c-0.357,0.495-0.661,1.081-0.909,1.758
			c-0.427,1.062-0.782,2.191-1.063,3.391c-0.283,1.199-0.425,2.213-0.425,3.04c0,0.938,0.142,1.674,0.425,2.211
			c0.281,0.539,0.678,0.807,1.188,0.807c0.469,0,1.096-0.247,1.881-0.743c0.787-0.496,1.531-1.109,2.234-1.841
			c0.289-0.37,0.543-0.558,0.766-0.558c0.33,0,0.495,0.188,0.495,0.558c0,1.695-0.662,3.232-1.985,4.61
			c-0.908,0.91-1.953,1.646-3.132,2.201c-1.179,0.56-2.237,0.839-3.173,0.839c-1.641,0-3.006-0.517-4.096-1.552
			c-1.088-1.032-1.633-2.336-1.633-3.907s0.348-3.224,1.045-4.952c0.694-1.729,1.646-3.372,2.854-4.932
			c1.205-1.557,2.572-2.859,4.104-3.907c1.104-0.743,2.178-1.115,3.228-1.115L211.492,73.336L211.492,73.336z"/>
		<path fill="#EA661B" d="M220.383,73.293l0.082-0.247c0.912-2.563,1.697-4.37,2.359-5.417c0.318-0.496,0.76-0.938,1.326-1.322
			c1.063-0.677,2.063-1.014,3.002-1.014c0.551,0,0.973,0.123,1.262,0.372s0.434,0.606,0.434,1.076c0,0.317-0.207,0.965-0.623,1.942
			c-0.707,1.625-1.233,3.147-1.58,4.566c0.233,0.027,0.461,0.07,0.685,0.124c0.825,0.125,1.371,0.267,1.635,0.426
			c0.263,0.158,0.394,0.443,0.394,0.857c0,0.729-0.187,1.405-0.56,2.026c-0.371,0.621-0.858,1.074-1.467,1.365
			c-0.454,0.205-1.188,0.344-2.211,0.412c-0.177,0.539-0.375,1.275-0.593,2.213c-0.123,0.828-0.26,1.973-0.408,3.436
			c-0.083,0.537-0.125,1.039-0.125,1.509c0,2.178,1.056,3.264,3.165,3.264h0.123h0.063c0.247,0,0.371,0.042,0.371,0.125
			c0,0.22-0.234,0.593-0.701,1.115c-0.472,0.524-0.986,0.985-1.554,1.387c-0.606,0.412-1.269,0.744-1.985,0.992
			s-1.367,0.371-1.947,0.371c-1.449,0-2.625-0.488-3.531-1.467c-0.902-0.979-1.355-2.274-1.355-3.888
			c0-0.688,0.119-1.593,0.361-2.709c0.241-1.115,0.617-2.611,1.127-4.485c0.082-0.331,0.172-0.681,0.268-1.046
			c0.099-0.364,0.153-0.582,0.166-0.649c-0.551-0.015-0.942-0.132-1.178-0.353c-0.234-0.221-0.352-0.578-0.352-1.075
			c0-0.867,0.334-1.688,1.003-2.461C218.704,73.969,219.486,73.486,220.383,73.293z"/>
		<path fill="#EA661B" d="M234.066,93.494c-0.619-0.041-1.187-0.324-1.694-0.848c-0.509-0.552-0.87-1.147-1.084-1.789
			s-0.319-1.472-0.319-2.49c0-2.275,0.424-4.844,1.271-7.703c0.847-2.859,1.809-4.932,2.883-6.213
			c0.429-0.537,1.021-0.807,1.777-0.807c0.801,0,1.445,0.364,1.933,1.096c0.489,0.732,0.733,1.689,0.733,2.875
			c0,1.75-0.252,3.801-0.756,6.15c-0.504,2.349-1.211,4.793-2.123,7.327c-0.357,1.021-0.799,1.712-1.32,2.069
			c-0.359,0.222-0.779,0.331-1.26,0.331L234.066,93.494L234.066,93.494z M236.551,72.715c-1.297-0.041-1.943-0.82-1.943-2.336
			c0-0.758,0.189-1.637,0.568-2.636c0.379-1.001,0.809-1.741,1.292-2.224c0.249-0.263,0.5-0.447,0.755-0.559
			c0.256-0.109,0.582-0.166,0.982-0.166c0.688,0,1.197,0.169,1.52,0.507c0.324,0.339,0.485,0.898,0.485,1.687
			c0,0.979-0.169,1.904-0.506,2.781c-0.339,0.875-0.79,1.584-1.354,2.129c-0.563,0.545-1.144,0.815-1.738,0.815L236.551,72.715
			L236.551,72.715z"/>
		<path fill="#EA661B" d="M254.311,75.795l0.332-0.641c0.346-0.717,0.631-1.191,0.857-1.426c0.227-0.235,0.535-0.353,0.92-0.353
			c1.131,0,1.696,1.274,1.696,3.824c0,0.743-0.056,1.386-0.167,1.924c-0.109,0.537-0.295,1.054-0.557,1.55
			c-0.316,0.662-0.746,1.417-1.281,2.266c-0.539,0.848-1.148,1.744-1.832,2.688c-0.682,0.945-1.409,1.893-2.18,2.844
			c-1.379,1.75-2.543,3.031-3.494,3.844c-0.951,0.814-1.75,1.222-2.398,1.222c-1.2,0-2.055-0.729-2.564-2.19
			c-0.358-0.924-0.686-2.041-0.981-3.351s-0.526-2.638-0.692-3.979c-0.164-1.344-0.246-2.644-0.246-3.896
			c0-1.737,0.152-3.202,0.465-4.395c0.311-1.191,0.731-1.975,1.271-2.347c0.481-0.274,0.992-0.413,1.528-0.413
			c0.635,0,1.23,0.1,1.789,0.299c0.56,0.2,0.994,0.493,1.313,0.879c0.289,0.291,0.507,0.674,0.652,1.147
			c0.144,0.476,0.239,1.199,0.288,2.171c0.048,0.973,0.07,2.313,0.07,4.021v1.054v1.985v2.336h0.084
			c0.264-0.592,0.478-1.047,0.642-1.363c0.442-0.868,1.297-2.702,2.563-5.5c0.262-0.594,0.758-1.696,1.488-3.309L254.311,75.795z"/>
	</g>
	<g display="inline">
		<path fill="#1D1E1C" d="M267.087,76.77h-0.083c-0.412,0-0.783-0.164-1.113-0.494c-0.33-0.332-0.496-0.688-0.496-1.073
			s0.166-0.838,0.496-1.361c0.578-0.963,0.866-1.871,0.866-2.725c0-0.798-0.187-1.492-0.558-2.084
			c-0.371-0.593-0.984-1.218-1.836-1.878c-0.799-0.661-1.321-1.19-1.568-1.59c-0.248-0.397-0.372-0.859-0.372-1.383
			c0-0.716,0.345-1.416,1.032-2.104c0.799-0.771,1.852-1.485,3.156-2.146c1.308-0.662,2.277-0.992,2.912-0.992
			c0.934,0,1.82,0.346,2.66,1.033c0.84,0.688,1.506,1.615,2.002,2.785s0.742,2.346,0.742,3.529c0,2.559-1.376,5.242-4.128,8.048
			C269.26,75.876,268.021,76.688,267.087,76.77z"/>
	</g>
</g>
<g id="logo_1_">
	<g>
		<path fill="#FFFFFF" d="M16.555,39.758l-0.695-1.764c-0.854,0.741-1.513,1.438-1.979,2.089c-0.466,0.652-0.958,1.473-1.477,2.466
			c-0.653,1.198-1.16,1.953-1.522,2.268c-0.44,0.382-0.955,0.536-1.545,0.463c-0.592-0.073-1.111-0.344-1.559-0.812
			c-0.919-0.961-1.461-2.305-1.625-4.035c-0.164-1.728,0.149-3.319,0.938-4.77c0.986-1.938,2.531-4.146,4.633-6.625
			c2.103-2.478,4.356-4.761,6.762-6.849c2.716-2.355,5.331-4.288,7.844-5.793c2.514-1.503,4.999-2.578,7.459-3.227
			c2.459-0.646,4.901-0.917,7.323-0.809c2.423,0.107,4.743,0.664,6.961,1.668c2.218,1.007,4.188,2.408,5.91,4.206
			c1.555,1.626,2.957,3.746,4.206,6.359c1.247,2.615,2.183,5.409,2.805,8.385c0.624,2.976,0.849,5.756,0.672,8.344
			c-0.195,3.01-1.068,6.167-2.615,9.473c-1.548,3.304-3.384,5.877-5.503,7.717c-0.906,0.786-1.849,1.323-2.828,1.609
			c-0.98,0.288-1.683,0.209-2.107-0.233c-0.66-0.689-1.008-1.572-1.042-2.647c-0.034-1.074,0.248-2.683,0.848-4.826
			c0.582-1.767,0.957-3.602,1.125-5.505c-0.004-2.476-0.433-4.742-1.287-6.796c-0.854-2.055-2.295-4.142-4.322-6.259
			c-1.934-2.019-3.935-3.416-6.002-4.192c-2.067-0.775-4.446-1.01-7.135-0.706L41.185,49.97l1.788,3.723
			c0.67,1.492,1.979,3.92,3.92,7.284c3.283,5.852,5.253,10.185,5.909,12.997c0.287,1.238,0.419,2.59,0.396,4.051
			c-0.251,2.112-0.958,4.383-2.117,6.808c-1.159,2.427-2.424,4.234-3.795,5.424c-0.906,0.785-1.866,1.158-2.879,1.111
			c-1.014-0.044-1.957-0.523-2.829-1.434c-0.967-1.011-2.117-2.718-3.449-5.123c-1.333-2.404-3.576-6.839-6.73-13.298l-1.282-2.676
			l-1.42-2.893L16.555,39.758z"/>
		<path fill="#EB673B" d="M67.085,77.398c0.555-1.494,1.021-3.057,1.396-4.691c0.375-1.632,0.562-2.885,0.562-3.758
			c0-0.237-0.069-0.357-0.208-0.357c-0.223,0-0.611,0.473-1.167,1.419c-0.555,0.945-1.02,1.907-1.396,2.885
			c-0.806,2.156-1.428,3.943-1.866,5.365c-0.437,1.423-0.739,2.615-0.905,3.581c-0.167,0.964-0.25,1.95-0.25,2.955
			c0,0.859,0.1,1.488,0.302,1.885c0.201,0.396,0.524,0.595,0.969,0.595c0.764,0,1.618-0.32,2.563-0.963
			c0.944-0.642,1.798-1.484,2.562-2.528c0.598-0.78,1.063-1.169,1.396-1.169c0.43,0,0.645,0.323,0.645,0.972
			c0,1.415-0.465,2.795-1.395,4.145c-0.931,1.348-2.129,2.442-3.594,3.283c-1.466,0.84-2.962,1.259-4.489,1.259
			c-1.875,0-3.404-0.562-4.583-1.686c-1.181-1.124-1.771-2.592-1.771-4.402c0-1.482,0.333-3.218,1-5.208
			c0.667-1.989,1.559-3.992,2.677-6.01c1.118-2.016,2.344-3.845,3.677-5.484c1.333-1.639,2.653-2.896,3.958-3.769
			c0.805-0.568,1.701-0.852,2.688-0.852c0.75,0,1.43,0.222,2.042,0.664c0.61,0.441,1.083,1.061,1.417,1.854
			c0.333,0.794,0.5,1.673,0.5,2.64c0,2.075-0.427,4.104-1.281,6.088c-0.854,1.983-2.045,3.703-3.573,5.157
			c-0.722,0.7-1.417,1.249-2.083,1.646c-0.667,0.397-1.25,0.594-1.75,0.594c-0.486,0-0.729-0.177-0.729-0.535
			c0-0.198,0.18-0.575,0.542-1.13c0.486-0.728,1.055-1.824,1.709-3.293c0.055-0.145,0.117-0.301,0.187-0.466
			S66.988,77.689,67.085,77.398z"/>
		<g id="XMLID_1_">
			<g>
				<path fill="#EB673B" d="M89.657,86.462v0.084l-0.011-0.011C89.646,86.504,89.657,86.482,89.657,86.462z"/>
				<path fill="#EB673B" d="M83.469,75.296c2.268-1.436,4.471-2.159,6.585-2.159c1.773,0,3.237,0.346,4.383,1.038
					c1.145,0.702,1.718,1.572,1.718,2.631c0,0.776-0.287,1.604-0.859,2.475c0.749,0,1.222,0.084,1.42,0.23
					c0.198,0.157,0.286,0.503,0.286,1.049c-0.011,0-0.033,0.283-0.099,0.828c-0.088,1.311-0.121,2.537-0.121,3.669
					c0,0.598,0,1.049,0.022,1.353c0.011,0.304,0.033,0.65,0.077,1.049s0.088,0.713,0.121,0.954c0.11,0.618,0.297,1.236,0.551,1.845
					c-0.837,0.775-1.641,1.353-2.401,1.709c-0.76,0.367-1.542,0.545-2.334,0.545c-2.136,0-3.204-1.698-3.204-5.116
					c0-0.356,0.011-0.64,0.033-0.859l0.011,0.011v-0.084c0,0.021-0.011,0.042-0.011,0.073l-0.077-0.073
					c-1.289,1.446-2.478,2.621-3.557,3.543c-1.068,0.923-2.07,1.615-2.973,2.076c-0.914,0.461-1.751,0.692-2.511,0.692
					c-1.553,0-2.841-0.493-3.854-1.489c-1.013-0.985-1.52-2.243-1.52-3.764c0-0.943,0.253-2.055,0.749-3.334
					c0.496-1.289,1.189-2.537,2.06-3.774C79.427,78.41,81.255,76.701,83.469,75.296z M88.027,75.873c-0.22,0-0.562,0.23-1.024,0.671
					c-1.289,1.342-2.313,2.705-3.072,4.109c-0.749,1.405-1.134,2.652-1.134,3.754c0,0.723,0.154,1.32,0.474,1.803
					c0.308,0.472,0.705,0.713,1.178,0.713c0.396,0,1.156-0.409,2.257-1.227c1.101-0.828,2.346-1.908,3.711-3.261l0.573-0.43
					l-0.088-0.084l-0.396,0.115c-1.002,0.272-1.718,0.398-2.169,0.398c-0.54,0-0.804-0.126-0.804-0.398
					c0-0.084,0.11-0.335,0.331-0.733c0.771-1.122,1.167-2.181,1.167-3.166c0-0.566-0.11-1.091-0.308-1.563
					C88.501,76.104,88.281,75.873,88.027,75.873z"/>
			</g>
			<g>
			</g>
		</g>
		<path fill="#EB673B" d="M108.702,81.777l1.255-1.393c1.27-1.339,2.276-2.338,3.019-2.992c0.741-0.655,1.408-1.13,1.999-1.421
			c0.59-0.292,1.189-0.438,1.799-0.438c0.985,0,1.679,0.252,2.082,0.753c0.402,0.503,0.604,1.376,0.604,2.618
			c0,0.516-0.056,1.275-0.167,2.281c-0.167,1.335-0.25,2.592-0.25,3.77c0,1.322,0.07,2.394,0.208,3.213
			c0.096,0.502,0.242,1.005,0.437,1.507c0.139,0.476,0.208,0.8,0.208,0.973c0,0.211-0.083,0.376-0.249,0.495
			c-0.431,0.356-1.001,0.668-1.708,0.933c-0.708,0.265-1.307,0.396-1.792,0.396c-0.793,0-1.511-0.258-2.157-0.773
			c-0.646-0.516-1.146-1.229-1.5-2.142c-0.354-0.914-0.531-1.944-0.531-3.094c0-0.767,0.083-1.673,0.25-2.718l-0.083-0.08
			c-0.597,0.635-1.081,1.137-1.448,1.507c-0.368,0.371-0.711,0.721-1.032,1.053c-1.555,1.691-2.875,3.219-3.957,4.581
			c-0.417,0.528-0.799,0.99-1.146,1.388c-0.514,0.489-1.098,0.734-1.75,0.734c-0.888,0-1.611-0.317-2.167-0.951
			c-0.555-0.635-0.832-1.456-0.832-2.46c0-0.622,0.076-1.381,0.229-2.281c0.152-0.899,0.357-1.86,0.615-2.886
			c0.257-1.024,0.562-2.079,0.916-3.164c0.354-1.083,0.739-2.115,1.157-3.094c0.638-1.626,1.416-2.896,2.333-3.809
			c0.625-0.594,1.382-0.892,2.271-0.892c1.444,0,2.167,0.892,2.167,2.677c0,1.31-0.288,3.185-0.862,5.627L108.702,81.777z"/>
		<path fill="#EB673B" d="M135.417,72.281c2.07,0,3.104,0.231,3.104,0.694c0,0.528-0.466,0.813-1.396,0.854
			c-1.125,0.064-2.175,0.369-3.146,0.91c-0.972,0.543-1.837,1.283-2.594,2.223c-0.757,0.938-1.347,1.995-1.771,3.173
			c-0.424,1.177-0.635,2.42-0.635,3.729c0,1.441,0.353,2.602,1.062,3.48c0.708,0.879,1.631,1.318,2.771,1.318
			c1.056,0,1.979-0.516,2.771-1.546c0.792-1.032,1.187-2.236,1.187-3.611c0-1.122-0.246-2.177-0.74-3.162
			c-0.493-0.985-1.211-1.816-2.156-2.489c-0.402-0.306-0.604-0.523-0.604-0.654c0-0.186,0.285-0.47,0.855-0.854
			c0.638-0.411,1.354-0.753,2.146-1.031c0.792-0.277,1.458-0.416,2-0.416c0.624,0,1.219,0.154,1.781,0.465s1.059,0.754,1.49,1.329
			c0.43,0.575,0.759,1.236,0.989,1.983c0.23,0.748,0.344,1.544,0.344,2.39c0,1.403-0.279,2.787-0.833,4.157
			c-0.556,1.367-1.285,2.476-2.187,3.321c-1.168,1.07-2.574,1.947-4.22,2.628c-1.646,0.682-3.212,1.021-4.698,1.021
			c-1.444,0-2.879-0.237-4.301-0.713c-1.424-0.477-2.552-1.105-3.386-1.885c-1.111-1.057-1.667-2.559-1.667-4.502
			c0-1.533,0.397-3.069,1.188-4.603c0.792-1.534,1.865-2.924,3.218-4.175c1.354-1.249,2.847-2.233,4.479-2.954
			C132.101,72.642,133.751,72.281,135.417,72.281z"/>
		<path fill="#EB673B" d="M147.704,92.434c-0.624-0.04-1.193-0.312-1.706-0.814c-0.514-0.528-0.877-1.1-1.093-1.715
			c-0.214-0.615-0.322-1.412-0.322-2.391c0-2.181,0.428-4.644,1.281-7.388c0.854-2.743,1.822-4.73,2.906-5.961
			c0.431-0.516,1.026-0.772,1.792-0.772c0.805,0,1.454,0.35,1.946,1.051c0.492,0.7,0.739,1.62,0.739,2.757
			c0,1.679-0.254,3.646-0.761,5.9c-0.508,2.254-1.222,4.598-2.141,7.029c-0.36,0.98-0.805,1.642-1.334,1.985
			c-0.358,0.212-0.78,0.318-1.267,0.318H147.704z M150.209,72.5c-1.306-0.04-1.959-0.787-1.959-2.241
			c0-0.728,0.191-1.571,0.572-2.529c0.383-0.958,0.817-1.669,1.304-2.132c0.248-0.252,0.501-0.43,0.76-0.536
			c0.256-0.105,0.586-0.158,0.987-0.158c0.696,0,1.207,0.162,1.533,0.485s0.489,0.862,0.489,1.617c0,0.938-0.17,1.828-0.51,2.668
			c-0.341,0.84-0.795,1.52-1.364,2.043c-0.57,0.521-1.154,0.783-1.75,0.783H150.209z"/>
		<path fill="#FFFFFF" d="M161.354,79.521c-1.195-1.15-2.035-2.173-2.521-3.064c-0.486-0.894-0.728-1.849-0.728-2.866
			c0-1.534,0.487-2.976,1.467-4.324c0.98-1.349,2.292-2.42,3.938-3.213s3.412-1.189,5.303-1.189c2.138,0,3.783,0.423,4.936,1.268
			c1.152,0.848,1.729,2.044,1.729,3.591c0,0.74-0.208,1.509-0.625,2.301c-0.416,0.794-0.992,1.533-1.729,2.221
			c-0.501,0.478-0.966,0.839-1.396,1.082c-0.431,0.245-0.793,0.366-1.083,0.366c-0.362,0-0.543-0.265-0.543-0.792
			c0,0.012,0.028-0.193,0.084-0.616c0.083-0.621,0.125-1.175,0.125-1.666c0-0.687-0.108-1.378-0.323-2.072
			c-0.216-0.693-0.493-1.276-0.834-1.746c-0.34-0.469-0.663-0.704-0.968-0.704c-0.153,0-0.327,0.113-0.521,0.338
			c-0.376,0.37-0.665,0.831-0.875,1.381c-0.208,0.549-0.312,1.062-0.312,1.539c0,0.597,0.089,1.148,0.267,1.658
			c0.179,0.51,0.491,1.028,0.936,1.557c0.445,0.528,1.037,1.108,1.774,1.742c1.168,1.004,2.067,1.881,2.699,2.636
			c0.632,0.753,1.095,1.504,1.385,2.251c0.293,0.747,0.438,1.557,0.438,2.43c0,1.533-0.425,3.015-1.271,4.442
			c-0.848,1.429-1.969,2.582-3.363,3.462c-1.396,0.879-2.838,1.319-4.323,1.319c-1.418,0-2.801-0.292-4.146-0.873
			c-1.348-0.581-2.61-1.415-3.792-2.501c-1.222-1.148-1.832-2.168-1.832-3.053c0-0.543,0.269-1.071,0.812-1.588
			c0.556-0.528,1.24-0.978,2.052-1.349c0.812-0.37,1.497-0.556,2.053-0.556c0.318,0,0.59,0.077,0.811,0.229
			c0.225,0.152,0.422,0.411,0.596,0.774c0.173,0.363,0.343,0.856,0.508,1.477c0.266,0.886,0.508,1.545,0.731,1.975
			c0.223,0.429,0.533,0.855,0.938,1.278c0.416,0.397,0.854,0.597,1.312,0.597c0.557,0,0.995-0.209,1.313-0.627
			c0.318-0.416,0.479-0.988,0.479-1.716c0-1.138-0.421-2.275-1.269-3.414c-0.25-0.384-0.523-0.725-0.822-1.021
			c-0.296-0.298-0.947-0.87-1.948-1.714C162.508,80.531,162.021,80.114,161.354,79.521z"/>
		<path fill="#FFFFFF" d="M191.334,86.464v0.079l-0.084-0.079c-1.293,1.441-2.476,2.62-3.554,3.54
			c-1.075,0.92-2.069,1.608-2.979,2.072c-0.91,0.462-1.746,0.693-2.51,0.693c-1.556,0-2.841-0.495-3.854-1.486
			c-1.015-0.992-1.521-2.248-1.521-3.77c0-0.938,0.25-2.049,0.748-3.332c0.502-1.281,1.19-2.539,2.063-3.769
			c1.458-2.009,3.293-3.715,5.501-5.116c2.278-1.441,4.471-2.162,6.582-2.162c1.778,0,3.24,0.347,4.386,1.041
			c1.146,0.693,1.721,1.57,1.721,2.628c0,0.78-0.287,1.607-0.854,2.479c0.748,0,1.221,0.077,1.415,0.229
			c0.196,0.151,0.293,0.506,0.293,1.061c0-0.053-0.035,0.218-0.106,0.813c-0.082,1.31-0.124,2.533-0.124,3.67
			c0,0.596,0.008,1.044,0.021,1.35c0.014,0.303,0.04,0.652,0.082,1.05c0.043,0.397,0.084,0.715,0.127,0.952
			c0.108,0.623,0.29,1.236,0.54,1.846c-0.833,0.779-1.631,1.351-2.396,1.716c-0.762,0.362-1.54,0.544-2.332,0.544
			c-2.139,0-3.208-1.705-3.208-5.116C191.291,86.998,191.305,86.688,191.334,86.464z M192.581,81.921l-0.394,0.119
			c-1.002,0.264-1.723,0.396-2.168,0.396c-0.542,0-0.812-0.133-0.812-0.396c0-0.093,0.11-0.337,0.332-0.735
			c0.778-1.124,1.168-2.18,1.168-3.172c0-0.569-0.104-1.088-0.314-1.558c-0.206-0.469-0.437-0.705-0.687-0.705
			c-0.221,0-0.563,0.226-1.021,0.677c-1.291,1.335-2.314,2.702-3.072,4.104s-1.137,2.649-1.137,3.749
			c0,0.727,0.156,1.329,0.471,1.805c0.312,0.477,0.703,0.715,1.177,0.715c0.401,0,1.154-0.412,2.26-1.23
			c1.104-0.819,2.345-1.904,3.719-3.253l0.562-0.438L192.581,81.921z"/>
		<path fill="#FFFFFF" d="M212.02,73.094c1.057,0.041,1.896,0.331,2.521,0.874c0.624,0.541,0.938,1.269,0.938,2.181
			c0,0.795-0.24,1.594-0.719,2.4c-0.479,0.808-1.083,1.469-1.813,1.984c-0.729,0.515-1.461,0.771-2.197,0.771
			c-0.431,0-0.646-0.146-0.646-0.436c0-0.104,0.082-0.336,0.25-0.694c0.541-0.872,0.813-1.877,0.813-3.014
			c0-0.569-0.069-0.854-0.209-0.854c-0.194,0-0.474,0.239-0.832,0.714c-0.361,0.477-0.668,1.038-0.919,1.688
			c-0.43,1.017-0.787,2.102-1.072,3.252c-0.284,1.15-0.427,2.122-0.427,2.915c0,0.899,0.143,1.606,0.427,2.122
			c0.285,0.516,0.685,0.773,1.199,0.773c0.472,0,1.104-0.237,1.896-0.715c0.791-0.475,1.541-1.063,2.249-1.765
			c0.293-0.356,0.549-0.534,0.772-0.534c0.332,0,0.498,0.178,0.498,0.534c0,1.628-0.666,3.103-1.999,4.423
			c-0.916,0.874-1.969,1.578-3.156,2.113c-1.188,0.536-2.253,0.804-3.197,0.804c-1.652,0-3.028-0.496-4.127-1.488
			c-1.097-0.992-1.646-2.241-1.646-3.748c0-1.508,0.352-3.091,1.053-4.751c0.702-1.658,1.661-3.235,2.875-4.73
			c1.216-1.493,2.593-2.744,4.135-3.749c1.112-0.713,2.193-1.071,3.251-1.071H212.02z"/>
		<path fill="#FFFFFF" d="M220.977,73.055l0.085-0.237c0.918-2.461,1.709-4.191,2.376-5.197c0.32-0.476,0.766-0.897,1.337-1.269
			c1.069-0.648,2.078-0.972,3.023-0.972c0.557,0,0.981,0.119,1.272,0.357c0.293,0.238,0.437,0.582,0.437,1.032
			c0,0.305-0.209,0.925-0.627,1.863c-0.713,1.56-1.244,3.02-1.593,4.381c0.235,0.027,0.465,0.066,0.688,0.12
			c0.833,0.118,1.383,0.256,1.647,0.406c0.265,0.152,0.396,0.427,0.396,0.824c0,0.7-0.188,1.35-0.563,1.943
			c-0.375,0.597-0.864,1.031-1.479,1.311c-0.457,0.197-1.198,0.33-2.227,0.396c-0.177,0.516-0.378,1.222-0.597,2.122
			c-0.123,0.794-0.262,1.894-0.413,3.294c-0.082,0.516-0.125,0.999-0.125,1.447c0,2.089,1.063,3.131,3.188,3.131h0.126h0.063
			c0.25,0,0.375,0.041,0.375,0.121c0,0.211-0.236,0.567-0.708,1.069c-0.473,0.503-0.993,0.945-1.563,1.331
			c-0.611,0.396-1.277,0.712-2.002,0.951c-0.723,0.238-1.376,0.356-1.961,0.356c-1.461,0-2.646-0.469-3.56-1.408
			c-0.91-0.938-1.366-2.182-1.366-3.729c0-0.662,0.12-1.528,0.365-2.599c0.242-1.071,0.621-2.506,1.135-4.304
			c0.083-0.318,0.173-0.651,0.271-1.003c0.098-0.35,0.153-0.559,0.167-0.623c-0.556-0.014-0.951-0.127-1.188-0.339
			c-0.236-0.21-0.354-0.555-0.354-1.03c0-0.832,0.338-1.619,1.011-2.36C219.287,73.702,220.074,73.239,220.977,73.055z"/>
		<path fill="#FFFFFF" d="M234.766,92.434c-0.624-0.04-1.194-0.312-1.708-0.814c-0.512-0.528-0.876-1.1-1.091-1.715
			s-0.322-1.412-0.322-2.391c0-2.181,0.427-4.644,1.282-7.388c0.853-2.743,1.822-4.73,2.904-5.961
			c0.432-0.516,1.027-0.772,1.791-0.772c0.807,0,1.454,0.35,1.946,1.051c0.494,0.7,0.74,1.62,0.74,2.757
			c0,1.679-0.254,3.646-0.762,5.9s-1.222,4.598-2.14,7.029c-0.36,0.98-0.805,1.642-1.332,1.985c-0.36,0.212-0.785,0.318-1.269,0.318
			H234.766z M237.27,72.5c-1.307-0.04-1.96-0.787-1.96-2.241c0-0.728,0.191-1.571,0.574-2.529c0.382-0.958,0.815-1.669,1.301-2.132
			c0.251-0.252,0.504-0.43,0.762-0.536c0.257-0.105,0.587-0.158,0.989-0.158c0.693,0,1.206,0.162,1.531,0.485
			c0.326,0.323,0.489,0.862,0.489,1.617c0,0.938-0.171,1.828-0.51,2.668c-0.34,0.84-0.796,1.52-1.363,2.043
			c-0.57,0.521-1.153,0.783-1.752,0.783H237.27z"/>
		<path fill="#FFFFFF" d="M255.163,75.455l0.333-0.614c0.35-0.688,0.637-1.145,0.867-1.37c0.229-0.225,0.537-0.336,0.926-0.336
			c1.14,0,1.709,1.223,1.709,3.669c0,0.713-0.056,1.329-0.168,1.845c-0.11,0.516-0.297,1.011-0.561,1.487
			c-0.319,0.635-0.751,1.359-1.292,2.172c-0.542,0.814-1.155,1.673-1.844,2.579c-0.688,0.905-1.421,1.814-2.199,2.727
			c-1.388,1.68-2.562,2.908-3.52,3.688c-0.959,0.779-1.765,1.171-2.417,1.171c-1.209,0-2.07-0.701-2.582-2.103
			c-0.363-0.886-0.692-1.958-0.991-3.213c-0.298-1.257-0.531-2.528-0.696-3.818c-0.169-1.29-0.25-2.535-0.25-3.739
			c0-1.666,0.155-3.07,0.469-4.214c0.312-1.145,0.737-1.895,1.281-2.251c0.485-0.265,0.998-0.396,1.54-0.396
			c0.639,0,1.239,0.096,1.803,0.286c0.563,0.192,1.002,0.473,1.322,0.844c0.292,0.277,0.51,0.645,0.657,1.101
			c0.146,0.456,0.242,1.15,0.29,2.082c0.049,0.933,0.072,2.219,0.072,3.858v1.012v1.904v2.24h0.084
			c0.265-0.567,0.481-1.004,0.646-1.308c0.445-0.834,1.307-2.592,2.584-5.277c0.263-0.568,0.764-1.625,1.499-3.173L255.163,75.455z"
			/>
	</g>
	<g>
		<path fill="#EB673B" d="M268.037,76.389h-0.083c-0.415,0-0.79-0.157-1.123-0.475c-0.333-0.316-0.499-0.659-0.499-1.029
			s0.166-0.805,0.499-1.306c0.583-0.925,0.873-1.796,0.873-2.614c0-0.766-0.187-1.432-0.561-1.999
			c-0.375-0.566-0.991-1.169-1.851-1.801c-0.807-0.635-1.33-1.143-1.58-1.525c-0.25-0.382-0.374-0.823-0.374-1.325
			c0-0.688,0.346-1.36,1.039-2.02c0.803-0.739,1.863-1.425,3.181-2.06c1.317-0.633,2.294-0.951,2.934-0.951
			c0.942,0,1.835,0.331,2.682,0.991c0.846,0.659,1.518,1.551,2.018,2.673c0.497,1.121,0.747,2.25,0.747,3.385
			c0,2.455-1.386,5.028-4.158,7.721C270.226,75.532,268.979,76.31,268.037,76.389z"/>
	</g>
</g>
</svg>
