<?xml version="1.0" encoding="utf-8"?>
<!-- Generator: Adobe Illustrator 16.0.0, SVG Export Plug-In . SVG Version: 6.00 Build 0)  -->
<!DOCTYPE svg PUBLIC "-//W3C//DTD SVG 1.1//EN" "http://www.w3.org/Graphics/SVG/1.1/DTD/svg11.dtd">
<svg version="1.1" id="Calque_1" xmlns="http://www.w3.org/2000/svg" xmlns:xlink="http://www.w3.org/1999/xlink" x="0px" y="0px"
	 width="110px" height="110px" viewBox="0 0 110 110" enable-background="new 0 0 110 110" xml:space="preserve">
<g id="R-Multicolor">
	<circle fill="#FF6633" cx="55" cy="55" r="55"/>
	<g>
		<path fill="#E2E4E5" d="M83.484,66.502c-3.139-3.139-7.582-4.164-11.582-3.098L50.167,41.67c1.747-4.929,0.664-10.637-3.28-14.582
			c-3.947-3.947-9.659-5.029-14.591-3.277l10.348,10.348v5.657l-2.828,2.828h-5.657L23.811,32.296
			c-1.751,4.932-0.669,10.644,3.277,14.591c3.949,3.949,9.666,5.03,14.6,3.274l21.728,21.728c-1.066,4.002-0.041,8.445,3.098,11.584
			c4.687,4.687,12.284,4.687,16.971,0C88.172,78.787,88.172,71.189,83.484,66.502z M76.866,81.953L69.9,80.087l-1.865-6.965
			l5.099-5.099l6.966,1.865l1.865,6.965L76.866,81.953z"/>
		<path fill="#FFFFFF" d="M71.902,63.404L50.167,41.67c1.747-4.929,0.664-10.637-3.28-14.582c-3.947-3.947-9.659-5.029-14.591-3.277
			l10.348,10.348v5.657l-1.355,1.355L70.637,70.52l2.497-2.498l6.966,1.867l1.865,6.965l-2.497,2.496l4.067,4.067
			c4.633-4.69,4.619-12.247-0.051-16.916C80.346,63.363,75.902,62.338,71.902,63.404z"/>
		<path fill="#31B3A0" d="M53.788,68.08c0.757-0.757,1.055-1.864,0.778-2.898c-0.268-1.002-0.009-2.115,0.777-2.899l2.828-2.828
			c0.392-0.392,0.392-1.024,0-1.414l-5.657-5.657c-0.391-0.391-1.024-0.391-1.414,0l-2.828,2.828
			c-0.785,0.785-1.898,1.044-2.899,0.777c-1.036-0.277-2.141,0.02-2.899,0.777L24.23,75.01c-3.536,3.536,7.778,14.85,11.314,11.314
			L53.788,68.08z"/>
		<polygon fill="#E2E4E5" points="83.188,24.539 71.166,30.903 70.459,35.853 53.222,53.09 57.464,57.333 74.702,40.095 
			79.581,39.459 86.096,27.447 		"/>
		<polygon fill="#FFFFFF" points="83.188,24.539 71.166,30.903 70.459,35.853 53.222,53.09 55.566,55.434 84.824,26.176 		"/>
		<path fill="#31B3A0" d="M52.515,52.383c-0.391-0.391-1.023-0.391-1.414,0l-2.829,2.829c-0.785,0.786-1.898,1.044-2.899,0.776
			c-1.036-0.277-2.141,0.021-2.899,0.779L24.23,75.01c-1.814,1.814,0.284,5.674,3.232,8.527l28.104-28.103L52.515,52.383z"/>
	</g>
</g>
</svg>
