<?xml version="1.0" encoding="utf-8"?>
<!-- Generator: Adobe Illustrator 16.0.0, SVG Export Plug-In . SVG Version: 6.00 Build 0)  -->
<!DOCTYPE svg PUBLIC "-//W3C//DTD SVG 1.1//EN" "http://www.w3.org/Graphics/SVG/1.1/DTD/svg11.dtd">
<svg version="1.1" id="Capa_1" xmlns="http://www.w3.org/2000/svg" xmlns:xlink="http://www.w3.org/1999/xlink" x="0px" y="0px"
	 width="512px" height="512px" viewBox="0 0 512 512" enable-background="new 0 0 512 512" xml:space="preserve">
<g id="XMLID_158_">
	<path id="XMLID_162_" fill="#EA661B" d="M400.931,109.468h-18.357c-23.734,0-42.992,19.25-42.992,42.992v3.153l54.274-38.547
		c0.049-0.035,0.112-0.041,0.164-0.076c-0.052,0.041-0.103,0.05-0.146,0.091l-71.676,65.898l-73.491,31.3
		c-10.855,4.613-15.91,17.159-11.294,28.011c3.471,8.125,11.363,12.998,19.67,12.998c2.791,0,5.626-0.552,8.342-1.719l76.879-32.732
		c2.252-0.952,4.303-2.279,6.092-3.931l74.372-68.393c0.063-0.057,0.083-0.143,0.146-0.2c-0.063,0.066-0.082,0.149-0.134,0.216
		l-65.712,77.812c-1.902,2.251-4.217,3.93-6.757,5.021l-2.987,1.269l-7.742,3.293l0.032,250.45
		c0,14.155,11.482,25.627,25.627,25.627c5.842,0,11.18-2.037,15.479-5.339c-3.286-6.057-5.336-12.896-5.336-20.288v-152.71h17.087
		v152.709c0,14.155,11.477,25.627,25.626,25.627c14.145,0,25.62-11.472,25.62-25.627c0,0,0.202-215.446,0.202-333.915
		C443.92,128.718,424.669,109.468,400.931,109.468z"/>
	<path id="XMLID_161_" fill="#EA661B" d="M391.767,99.856c27.595,0,49.934-22.346,49.934-49.923C441.701,22.346,419.362,0,391.767,0
		c-27.573,0-49.932,22.346-49.932,49.933C341.835,77.51,364.194,99.856,391.767,99.856z"/>
	<path id="XMLID_160_" fill="#EA661B" d="M120.233,99.856c27.574,0,49.934-22.346,49.934-49.923C170.167,22.346,147.808,0,120.233,0
		C92.641,0,70.302,22.346,70.302,49.933C70.302,77.51,92.641,99.856,120.233,99.856z"/>
	<path id="XMLID_159_" fill="#EA661B" d="M182.995,179.619l-56.988-54.971l46.413,35.819v-8.007
		c0-23.742-19.257-42.992-42.992-42.992h-18.355c-23.743,0-42.992,19.25-42.992,42.992c0,122.257,0.203,333.914,0.203,333.914
		c0,14.155,11.477,25.627,25.619,25.627c14.149,0,25.626-11.472,25.626-25.627v-152.71h17.087v152.709
		c0,7.392-2.056,14.231-5.342,20.288c4.308,3.302,9.643,5.339,15.486,5.339c14.143,0,25.627-11.472,25.627-25.627l0.032-250.748
		l-17.054-12.128l-5.451-3.873c-0.317-0.231-0.622-0.517-0.869-0.809L96.34,155.394l58.992,56.898
		c1.338,1.275,2.824,2.386,4.442,3.281l70.4,39.219c-1.771-2.267-3.351-4.711-4.537-7.479c-5.925-13.924-1.801-29.455,8.971-38.931
		L182.995,179.619z"/>
</g>
</svg>
