<?xml version="1.0" encoding="utf-8"?>
<!-- Generator: Adobe Illustrator 16.0.0, SVG Export Plug-In . SVG Version: 6.00 Build 0)  -->
<!DOCTYPE svg PUBLIC "-//W3C//DTD SVG 1.1//EN" "http://www.w3.org/Graphics/SVG/1.1/DTD/svg11.dtd">
<svg version="1.1" id="Calque_1" xmlns="http://www.w3.org/2000/svg" xmlns:xlink="http://www.w3.org/1999/xlink" x="0px" y="0px"
	 width="269.5px" height="89.5px" viewBox="0 0 269.5 89.5" enable-background="new 0 0 269.5 89.5" xml:space="preserve">
<g>
	<path fill="#FFFFFF" d="M12.476,30.513l-0.706-1.884c-0.868,0.792-1.537,1.535-2.01,2.229c-0.474,0.697-0.973,1.573-1.5,2.631
		c-0.664,1.278-1.18,2.085-1.548,2.42c-0.447,0.408-0.97,0.573-1.57,0.494c-0.601-0.078-1.128-0.368-1.583-0.866
		c-0.934-1.026-1.485-2.46-1.651-4.305c-0.166-1.846,0.152-3.543,0.953-5.092c1.002-2.067,2.572-4.424,4.708-7.069
		c2.136-2.646,4.426-5.082,6.871-7.31c2.759-2.515,5.417-4.576,7.969-6.183c2.555-1.604,5.081-2.752,7.58-3.444
		c2.499-0.689,4.979-0.977,7.441-0.862c2.462,0.114,4.819,0.708,7.072,1.78c2.254,1.074,4.256,2.569,6.005,4.489
		c1.58,1.733,3.003,3.997,4.273,6.787c1.267,2.79,2.218,5.773,2.851,8.949c0.634,3.175,0.863,6.144,0.683,8.904
		c-0.199,3.214-1.085,6.584-2.657,10.11c-1.574,3.527-3.438,6.273-5.593,8.237c-0.92,0.838-1.877,1.412-2.873,1.718
		c-0.996,0.307-1.71,0.223-2.141-0.25c-0.671-0.737-1.024-1.678-1.059-2.825c-0.035-1.146,0.251-2.863,0.861-5.151
		c0.591-1.886,0.972-3.844,1.143-5.875c-0.004-2.644-0.44-5.062-1.308-7.253c-0.868-2.193-2.332-4.42-4.392-6.68
		c-1.964-2.156-3.997-3.646-6.098-4.474c-2.101-0.828-4.517-1.079-7.25-0.754l10.556,22.427l1.817,3.973
		c0.682,1.593,2.01,4.185,3.982,7.774c3.336,6.245,5.338,10.87,6.004,13.87c0.292,1.323,0.426,2.765,0.403,4.324
		c-0.255,2.254-0.973,4.678-2.151,7.266c-1.178,2.589-2.462,4.519-3.856,5.788c-0.92,0.839-1.896,1.236-2.926,1.186
		c-1.03-0.047-1.988-0.558-2.875-1.529c-0.982-1.078-2.15-2.899-3.504-5.467c-1.354-2.567-3.634-7.299-6.837-14.193l-1.304-2.855
		l-1.443-3.087L12.476,30.513z"/>
	<path fill="#EC663B" d="M61.772,65.54c0.564-2.111,1.038-4.321,1.418-6.628c0.381-2.309,0.571-4.078,0.571-5.311
		c0-0.336-0.071-0.505-0.212-0.505c-0.226,0-0.621,0.669-1.185,2.003c-0.564,1.338-1.037,2.695-1.417,4.077
		c-0.819,3.048-1.452,5.573-1.896,7.583c-0.444,2.01-0.751,3.693-0.92,5.057c-0.17,1.364-0.254,2.756-0.254,4.178
		c0,1.215,0.102,2.103,0.307,2.663c0.204,0.562,0.532,0.84,0.984,0.84c0.776,0,1.644-0.454,2.604-1.359
		c0.959-0.906,1.827-2.098,2.603-3.574c0.607-1.101,1.08-1.651,1.418-1.651c0.437,0,0.656,0.456,0.656,1.371
		c0,2.002-0.473,3.953-1.417,5.858c-0.946,1.904-2.163,3.454-3.652,4.639c-1.489,1.187-3.01,1.779-4.562,1.779
		c-1.905,0-3.458-0.795-4.657-2.382c-1.199-1.589-1.798-3.661-1.798-6.223c0-2.093,0.338-4.543,1.016-7.356
		c0.676-2.812,1.583-5.642,2.719-8.491c1.137-2.851,2.382-5.432,3.736-7.75c1.356-2.315,2.696-4.091,4.022-5.325
		c0.817-0.801,1.728-1.205,2.731-1.205c0.763,0,1.453,0.314,2.075,0.938c0.62,0.626,1.101,1.501,1.439,2.621
		c0.338,1.121,0.508,2.363,0.508,3.727c0,2.934-0.434,5.804-1.302,8.604c-0.868,2.804-2.078,5.231-3.63,7.289
		c-0.733,0.989-1.439,1.765-2.118,2.324c-0.676,0.562-1.269,0.841-1.778,0.841c-0.494,0-0.74-0.25-0.74-0.756
		c0-0.28,0.183-0.812,0.55-1.599c0.494-1.026,1.072-2.577,1.736-4.648c0.055-0.207,0.119-0.429,0.189-0.66
		C61.588,66.272,61.673,65.952,61.772,65.54z"/>
	<path fill="#EC663B" d="M81.625,80.357v0.085l-0.085-0.085c-1.312,1.539-2.514,2.797-3.608,3.778
		c-1.093,0.98-2.104,1.719-3.027,2.213c-0.924,0.493-1.774,0.74-2.55,0.74c-1.581,0-2.886-0.529-3.917-1.587
		c-1.029-1.059-1.545-2.4-1.545-4.023c0-1.001,0.254-2.188,0.762-3.555c0.508-1.37,1.207-2.71,2.096-4.022
		c1.481-2.145,3.344-3.965,5.588-5.462c2.314-1.538,4.544-2.308,6.689-2.308c1.807,0,3.291,0.371,4.456,1.111
		c1.164,0.741,1.746,1.676,1.746,2.806c0,0.833-0.289,1.715-0.867,2.646c0.762,0,1.242,0.081,1.439,0.244
		c0.197,0.162,0.296,0.539,0.296,1.132c0-0.056-0.035,0.233-0.105,0.868c-0.085,1.397-0.127,2.703-0.127,3.917
		c0,0.634,0.007,1.113,0.022,1.438c0.013,0.325,0.042,0.698,0.084,1.123c0.042,0.422,0.085,0.761,0.127,1.015
		c0.113,0.663,0.296,1.32,0.552,1.969c-0.848,0.833-1.66,1.443-2.435,1.832c-0.776,0.388-1.567,0.581-2.371,0.581
		c-2.174,0-3.261-1.82-3.261-5.462C81.583,80.929,81.597,80.597,81.625,80.357z M82.896,75.51l-0.403,0.126
		c-1.016,0.283-1.75,0.424-2.202,0.424c-0.55,0-0.824-0.141-0.824-0.424c0-0.098,0.112-0.359,0.338-0.781
		c0.79-1.201,1.186-2.33,1.186-3.388c0-0.606-0.106-1.16-0.317-1.662c-0.213-0.5-0.446-0.751-0.699-0.751
		c-0.226,0-0.571,0.239-1.037,0.72c-1.313,1.426-2.354,2.885-3.123,4.382c-0.769,1.497-1.153,2.828-1.153,4
		c0,0.776,0.157,1.419,0.476,1.927c0.318,0.509,0.717,0.763,1.196,0.763c0.409,0,1.175-0.438,2.296-1.313
		c1.123-0.875,2.382-2.032,3.778-3.473l0.573-0.466L82.896,75.51z"/>
	<path fill="#EC663B" d="M99.963,75.356l1.275-1.486c1.29-1.43,2.313-2.493,3.067-3.194c0.753-0.698,1.432-1.205,2.031-1.516
		c0.6-0.311,1.209-0.467,1.829-0.467c1.001,0,1.705,0.269,2.115,0.804c0.409,0.538,0.614,1.469,0.614,2.796
		c0,0.55-0.057,1.36-0.169,2.434c-0.17,1.426-0.254,2.766-0.254,4.022c0,1.41,0.071,2.554,0.212,3.429
		c0.098,0.536,0.246,1.073,0.444,1.608c0.141,0.508,0.211,0.854,0.211,1.038c0,0.226-0.084,0.401-0.253,0.529
		c-0.438,0.381-1.017,0.713-1.736,0.995c-0.719,0.281-1.327,0.423-1.82,0.423c-0.805,0-1.535-0.275-2.191-0.825
		c-0.656-0.551-1.164-1.313-1.524-2.286c-0.36-0.975-0.54-2.075-0.54-3.303c0-0.818,0.084-1.785,0.253-2.899l-0.084-0.086
		c-0.606,0.679-1.098,1.214-1.471,1.609c-0.375,0.396-0.723,0.769-1.048,1.122c-1.581,1.806-2.921,3.437-4.021,4.89
		c-0.423,0.565-0.812,1.058-1.165,1.481c-0.522,0.522-1.115,0.783-1.778,0.783c-0.902,0-1.637-0.339-2.202-1.016
		c-0.564-0.677-0.846-1.552-0.846-2.625c0-0.664,0.077-1.475,0.233-2.435c0.155-0.96,0.363-1.985,0.624-3.079
		s0.571-2.22,0.931-3.377s0.751-2.258,1.175-3.303c0.649-1.734,1.439-3.091,2.371-4.064c0.635-0.635,1.404-0.951,2.308-0.951
		c1.467,0,2.201,0.951,2.201,2.857c0,1.397-0.292,3.399-0.875,6.005L99.963,75.356z"/>
	<path fill="#EC663B" d="M126.084,65.222c2.103,0,3.154,0.248,3.154,0.742c0,0.563-0.473,0.867-1.418,0.91
		c-1.142,0.069-2.209,0.395-3.197,0.974c-0.988,0.578-1.866,1.367-2.635,2.371c-0.77,1.001-1.369,2.13-1.799,3.386
		c-0.432,1.256-0.646,2.583-0.646,3.979c0,1.538,0.358,2.777,1.08,3.715c0.719,0.939,1.657,1.408,2.815,1.408
		c1.073,0,2.011-0.55,2.816-1.651c0.804-1.101,1.206-2.384,1.206-3.852c0-1.2-0.25-2.326-0.751-3.377
		c-0.5-1.052-1.231-1.937-2.191-2.657c-0.408-0.325-0.613-0.557-0.613-0.697c0-0.198,0.289-0.502,0.868-0.911
		c0.648-0.438,1.376-0.805,2.181-1.101c0.804-0.296,1.481-0.443,2.032-0.443c0.634,0,1.238,0.165,1.809,0.496
		c0.571,0.332,1.077,0.806,1.513,1.418c0.438,0.613,0.772,1.319,1.006,2.117s0.349,1.647,0.349,2.552
		c0,1.495-0.283,2.973-0.847,4.435c-0.564,1.46-1.304,2.642-2.221,3.546c-1.187,1.142-2.615,2.077-4.288,2.804
		c-1.672,0.728-3.263,1.09-4.773,1.09c-1.467,0-2.925-0.254-4.371-0.762c-1.447-0.509-2.594-1.179-3.44-2.011
		c-1.129-1.13-1.694-2.73-1.694-4.805c0-1.638,0.403-3.275,1.208-4.911c0.804-1.638,1.894-3.122,3.27-4.457
		c1.375-1.333,2.893-2.385,4.55-3.153C122.715,65.605,124.392,65.222,126.084,65.222z"/>
	<path fill="#EC663B" d="M137.544,86.729c-0.634-0.043-1.21-0.332-1.732-0.867c-0.522-0.564-0.892-1.175-1.109-1.831
		c-0.218-0.655-0.328-1.507-0.328-2.552c0-2.327,0.434-4.957,1.301-7.884c0.868-2.93,1.852-5.05,2.954-6.361
		c0.436-0.552,1.041-0.825,1.819-0.825c0.817,0,1.476,0.373,1.978,1.121s0.752,1.729,0.752,2.942c0,1.791-0.258,3.891-0.774,6.296
		c-0.516,2.407-1.241,4.907-2.175,7.505c-0.366,1.046-0.816,1.751-1.354,2.117c-0.365,0.227-0.794,0.339-1.287,0.339H137.544z
		 M140.089,65.456c-1.325-0.044-1.989-0.84-1.989-2.394c0-0.775,0.194-1.675,0.582-2.697c0.388-1.024,0.83-1.782,1.323-2.276
		c0.254-0.269,0.51-0.459,0.772-0.571c0.26-0.114,0.596-0.17,1.006-0.17c0.705,0,1.224,0.174,1.556,0.519
		c0.329,0.345,0.497,0.921,0.497,1.725c0,1.002-0.172,1.952-0.518,2.848c-0.346,0.896-0.81,1.623-1.386,2.181
		c-0.58,0.557-1.174,0.837-1.779,0.837H140.089z"/>
	<path fill="#FFFFFF" d="M151.876,68.496c-1.593-1.612-2.714-3.044-3.36-4.295c-0.652-1.251-0.976-2.589-0.976-4.015
		c0-2.151,0.653-4.17,1.959-6.06c1.307-1.89,3.058-3.39,5.254-4.502c2.195-1.112,4.553-1.668,7.074-1.668
		c2.852,0,5.048,0.593,6.585,1.779c1.536,1.186,2.308,2.862,2.308,5.03c0,1.038-0.278,2.112-0.834,3.224
		c-0.554,1.112-1.323,2.148-2.306,3.111c-0.667,0.669-1.29,1.175-1.866,1.517c-0.569,0.345-1.054,0.516-1.441,0.516
		c-0.483,0-0.722-0.373-0.722-1.112c0,0.02,0.036-0.27,0.11-0.863c0.109-0.87,0.165-1.648,0.165-2.335
		c0-0.963-0.143-1.931-0.431-2.902c-0.287-0.973-0.655-1.789-1.112-2.447c-0.454-0.656-0.882-0.985-1.29-0.985
		c-0.204,0-0.436,0.157-0.696,0.471c-0.502,0.521-0.888,1.166-1.169,1.936c-0.276,0.77-0.414,1.488-0.414,2.157
		c0,0.836,0.118,1.609,0.355,2.323c0.238,0.716,0.654,1.442,1.248,2.182c0.593,0.739,1.384,1.554,2.368,2.441
		c1.557,1.406,2.758,2.636,3.603,3.692c0.843,1.055,1.458,2.108,1.845,3.153c0.391,1.048,0.585,2.183,0.585,3.405
		c0,2.149-0.565,4.227-1.695,6.224c-1.13,2.005-2.627,3.621-4.487,4.853c-1.862,1.231-3.784,1.849-5.767,1.849
		c-1.891,0-3.737-0.408-5.532-1.224c-1.798-0.813-3.483-1.981-5.059-3.503c-1.63-1.612-2.445-3.036-2.445-4.278
		c0-0.759,0.36-1.502,1.086-2.224c0.738-0.741,1.651-1.371,2.737-1.891c1.082-0.52,1.996-0.779,2.737-0.779
		c0.424,0,0.786,0.108,1.082,0.321c0.298,0.214,0.56,0.574,0.794,1.086c0.231,0.508,0.456,1.197,0.678,2.069
		c0.353,1.241,0.676,2.162,0.976,2.765c0.294,0.604,0.712,1.199,1.25,1.792c0.554,0.557,1.14,0.834,1.751,0.834
		c0.74,0,1.325-0.294,1.752-0.875c0.423-0.585,0.639-1.387,0.639-2.406c0-1.593-0.563-3.19-1.692-4.783
		c-0.332-0.539-0.698-1.016-1.097-1.433c-0.397-0.416-1.265-1.218-2.601-2.4C153.417,69.912,152.767,69.328,151.876,68.496z"/>
	<path fill="#FFFFFF" d="M183.923,80.357v0.085l-0.084-0.085c-1.313,1.539-2.516,2.797-3.609,3.778
		c-1.094,0.98-2.104,1.719-3.027,2.213c-0.924,0.493-1.775,0.74-2.552,0.74c-1.579,0-2.885-0.529-3.915-1.587
		c-1.03-1.059-1.546-2.4-1.546-4.023c0-1.001,0.254-2.188,0.762-3.555c0.508-1.37,1.208-2.71,2.096-4.022
		c1.482-2.145,3.346-3.965,5.589-5.462c2.313-1.538,4.543-2.308,6.689-2.308c1.806,0,3.291,0.371,4.455,1.111
		c1.165,0.741,1.747,1.676,1.747,2.806c0,0.833-0.29,1.715-0.867,2.646c0.762,0,1.239,0.081,1.439,0.244
		c0.198,0.162,0.296,0.539,0.296,1.132c0-0.056-0.036,0.233-0.106,0.868c-0.084,1.397-0.128,2.703-0.128,3.917
		c0,0.634,0.009,1.113,0.022,1.438s0.042,0.698,0.084,1.123c0.042,0.422,0.084,0.761,0.128,1.015c0.112,0.663,0.296,1.32,0.55,1.969
		c-0.846,0.833-1.657,1.443-2.436,1.832c-0.773,0.388-1.565,0.581-2.369,0.581c-2.174,0-3.26-1.82-3.26-5.462
		C183.881,80.929,183.895,80.597,183.923,80.357z M185.192,75.51l-0.401,0.126c-1.017,0.283-1.75,0.424-2.202,0.424
		c-0.55,0-0.825-0.141-0.825-0.424c0-0.098,0.113-0.359,0.338-0.781c0.791-1.201,1.186-2.33,1.186-3.388
		c0-0.606-0.106-1.16-0.318-1.662c-0.21-0.5-0.443-0.751-0.697-0.751c-0.227,0-0.572,0.239-1.038,0.72
		c-1.312,1.426-2.352,2.885-3.121,4.382c-0.771,1.497-1.154,2.828-1.154,4c0,0.776,0.158,1.419,0.476,1.927
		c0.318,0.509,0.717,0.763,1.198,0.763c0.408,0,1.174-0.438,2.296-1.313c1.121-0.875,2.381-2.032,3.779-3.473l0.569-0.466
		L185.192,75.51z"/>
	<path fill="#FFFFFF" d="M204.943,66.09c1.071,0.042,1.925,0.353,2.561,0.932c0.635,0.578,0.952,1.354,0.952,2.328
		c0,0.848-0.244,1.701-0.729,2.563c-0.488,0.858-1.1,1.564-1.842,2.115c-0.74,0.55-1.485,0.826-2.233,0.826
		c-0.438,0-0.656-0.156-0.656-0.466c0-0.113,0.084-0.36,0.252-0.742c0.552-0.93,0.828-2.004,0.828-3.218
		c0-0.605-0.07-0.909-0.212-0.909c-0.198,0-0.48,0.254-0.846,0.762c-0.368,0.508-0.678,1.107-0.932,1.8
		c-0.438,1.086-0.803,2.244-1.09,3.471c-0.29,1.228-0.435,2.266-0.435,3.112c0,0.959,0.145,1.714,0.435,2.265
		c0.287,0.55,0.693,0.826,1.215,0.826c0.48,0,1.122-0.254,1.926-0.763c0.807-0.507,1.568-1.135,2.288-1.884
		c0.296-0.381,0.558-0.571,0.783-0.571c0.339,0,0.509,0.19,0.509,0.571c0,1.736-0.679,3.311-2.034,4.72
		c-0.93,0.933-1.999,1.684-3.205,2.255c-1.208,0.572-2.292,0.857-3.25,0.857c-1.68,0-3.077-0.528-4.192-1.587
		c-1.114-1.06-1.672-2.393-1.672-4.002c0-1.608,0.355-3.298,1.069-5.069c0.712-1.771,1.688-3.454,2.922-5.049
		c1.233-1.595,2.636-2.928,4.201-4c1.13-0.762,2.229-1.144,3.304-1.144H204.943z"/>
	<path fill="#FFFFFF" d="M214.045,66.048l0.084-0.254c0.934-2.626,1.738-4.474,2.416-5.547c0.326-0.507,0.777-0.959,1.357-1.354
		c1.088-0.692,2.111-1.037,3.073-1.037c0.564,0,0.996,0.127,1.292,0.381c0.296,0.255,0.444,0.622,0.444,1.102
		c0,0.325-0.212,0.988-0.639,1.988c-0.724,1.665-1.264,3.225-1.617,4.677c0.24,0.03,0.472,0.072,0.7,0.128
		c0.846,0.127,1.403,0.271,1.673,0.434c0.269,0.162,0.402,0.455,0.402,0.878c0,0.749-0.19,1.439-0.572,2.076
		c-0.38,0.636-0.88,1.102-1.501,1.397c-0.464,0.212-1.218,0.353-2.264,0.424c-0.181,0.551-0.384,1.306-0.606,2.266
		c-0.126,0.848-0.266,2.02-0.418,3.516c-0.086,0.551-0.128,1.065-0.128,1.544c0,2.229,1.08,3.343,3.239,3.343h0.126h0.064
		c0.254,0,0.382,0.042,0.382,0.127c0,0.225-0.24,0.606-0.72,1.143c-0.482,0.536-1.01,1.009-1.59,1.419
		c-0.62,0.423-1.298,0.762-2.031,1.016c-0.736,0.254-1.4,0.381-1.994,0.381c-1.485,0-2.689-0.501-3.617-1.502
		c-0.924-1.002-1.388-2.329-1.388-3.979c0-0.707,0.122-1.631,0.37-2.774c0.248-1.143,0.632-2.674,1.153-4.594
		c0.084-0.338,0.177-0.693,0.274-1.068c0.1-0.374,0.158-0.596,0.17-0.667c-0.564-0.014-0.966-0.134-1.206-0.36
		c-0.24-0.225-0.359-0.592-0.359-1.1c0-0.89,0.342-1.729,1.027-2.52C212.327,66.739,213.127,66.246,214.045,66.048z"/>
	<path fill="#FFFFFF" d="M227.03,86.729c-0.634-0.043-1.213-0.332-1.733-0.867c-0.521-0.564-0.892-1.175-1.109-1.831
		c-0.221-0.655-0.328-1.507-0.328-2.552c0-2.327,0.434-4.957,1.302-7.884c0.868-2.93,1.852-5.05,2.951-6.361
		c0.44-0.552,1.046-0.825,1.82-0.825c0.819,0,1.479,0.373,1.979,1.121c0.502,0.748,0.752,1.729,0.752,2.942
		c0,1.791-0.259,3.891-0.774,6.296c-0.516,2.407-1.241,4.907-2.176,7.505c-0.365,1.046-0.815,1.751-1.352,2.117
		c-0.368,0.227-0.798,0.339-1.29,0.339H227.03z M229.574,65.456c-1.328-0.044-1.989-0.84-1.989-2.394
		c0-0.775,0.193-1.675,0.581-2.697c0.389-1.024,0.828-1.782,1.324-2.276c0.254-0.269,0.512-0.459,0.771-0.571
		c0.263-0.114,0.597-0.17,1.006-0.17c0.706,0,1.227,0.174,1.556,0.519c0.332,0.345,0.498,0.921,0.498,1.725
		c0,1.002-0.174,1.952-0.518,2.848c-0.348,0.896-0.81,1.623-1.388,2.181c-0.578,0.557-1.17,0.837-1.779,0.837H229.574z"/>
	<path fill="#FFFFFF" d="M246.733,68.609l0.34-0.656c0.354-0.733,0.646-1.222,0.878-1.461c0.233-0.239,0.548-0.36,0.941-0.36
		c1.158,0,1.737,1.306,1.737,3.917c0,0.762-0.058,1.418-0.172,1.969c-0.111,0.551-0.302,1.079-0.569,1.587
		c-0.324,0.678-0.762,1.45-1.313,2.317c-0.552,0.869-1.176,1.786-1.875,2.753c-0.698,0.967-1.441,1.938-2.231,2.91
		c-1.412,1.793-2.604,3.105-3.577,3.938c-0.975,0.833-1.792,1.249-2.456,1.249c-1.228,0-2.104-0.748-2.626-2.243
		c-0.367-0.946-0.701-2.09-1.005-3.43c-0.303-1.342-0.54-2.699-0.708-4.075c-0.17-1.376-0.254-2.706-0.254-3.991
		c0-1.777,0.157-3.277,0.476-4.497c0.318-1.221,0.75-2.021,1.302-2.403c0.494-0.282,1.016-0.422,1.565-0.422
		c0.65,0,1.26,0.102,1.832,0.306c0.571,0.205,1.018,0.505,1.344,0.9c0.296,0.296,0.52,0.688,0.668,1.175
		c0.147,0.486,0.246,1.229,0.296,2.223c0.048,0.995,0.072,2.367,0.072,4.117v1.079v2.032v2.392h0.086
		c0.27-0.606,0.487-1.072,0.655-1.396c0.454-0.89,1.328-2.766,2.626-5.631c0.268-0.607,0.775-1.736,1.523-3.387L246.733,68.609z"/>
	<path fill="#FFFFFF" d="M257.686,80.669c0.159,0.871,0.725,1.307,1.696,1.307c1.089,0,2.503-0.638,4.246-1.917
		c1.012-0.739,1.696-1.108,2.044-1.108c0.436,0,0.842,0.116,1.218,0.348c0.378,0.232,0.567,0.472,0.567,0.718
		c0,0.262-0.211,0.603-0.632,1.023c-0.769,0.77-1.654,1.52-2.656,2.252c-1,0.732-1.964,1.343-2.894,1.828
		c-0.928,0.486-1.857,0.871-2.785,1.153c-0.93,0.284-1.756,0.426-2.48,0.426c-1.815,0-3.267-0.52-4.353-1.557
		c-1.091-1.038-1.632-2.42-1.632-4.146c0-1.319,0.285-2.811,0.859-4.472c0.571-1.662,1.344-3.218,2.315-4.669
		c1.147-1.697,2.556-3.111,4.224-4.243c2.059-1.365,4.033-2.047,5.918-2.047c1.366,0,2.436,0.432,3.212,1.295
		s1.163,2.051,1.163,3.56c0,1.174-0.308,2.4-0.924,3.678c-0.615,1.275-1.527,2.503-2.73,3.678c-0.988,0.986-1.956,1.756-2.907,2.308
		c-0.95,0.551-1.781,0.827-2.489,0.827C258.346,80.909,258.018,80.828,257.686,80.669z M257.642,79.973
		c0.666-0.45,1.175-0.9,1.523-1.35c0.769-0.943,1.364-2.023,1.784-3.243c0.334-0.798,0.596-1.69,0.783-2.677
		c0.189-0.986,0.283-1.908,0.283-2.764c0-0.798-0.167-1.196-0.503-1.196c-0.463,0-1.173,1.021-2.131,3.068
		c-0.565,1.233-1.026,2.463-1.382,3.688c-0.356,1.226-0.533,2.282-0.533,3.166C257.467,78.971,257.524,79.408,257.642,79.973z"/>
	<path fill="#EC663B" d="M176.353,59.476h-0.058c-0.29,0-0.55-0.116-0.782-0.347c-0.231-0.232-0.348-0.483-0.348-0.754
		c0-0.271,0.116-0.589,0.348-0.957c0.406-0.676,0.608-1.313,0.608-1.913c0-0.56-0.13-1.046-0.393-1.462
		c-0.26-0.416-0.689-0.855-1.287-1.319c-0.563-0.464-0.928-0.835-1.103-1.116c-0.174-0.28-0.262-0.604-0.262-0.971
		c0-0.501,0.242-0.994,0.726-1.478c0.563-0.541,1.3-1.044,2.216-1.507c0.918-0.463,1.6-0.694,2.046-0.694
		c0.653,0,1.277,0.241,1.867,0.724c0.59,0.483,1.059,1.135,1.406,1.956s0.521,1.647,0.521,2.478c0,1.796-0.966,3.68-2.899,5.65
		C177.878,58.849,177.009,59.417,176.353,59.476z"/>
</g>
</svg>
