<?xml version="1.0" encoding="utf-8"?>
<!-- Generator: Adobe Illustrator 16.0.0, SVG Export Plug-In . SVG Version: 6.00 Build 0)  -->
<!DOCTYPE svg PUBLIC "-//W3C//DTD SVG 1.1//EN" "http://www.w3.org/Graphics/SVG/1.1/DTD/svg11.dtd">
<svg version="1.1" id="Capa_1" xmlns="http://www.w3.org/2000/svg" xmlns:xlink="http://www.w3.org/1999/xlink" x="0px" y="0px"
	 width="249.5px" height="201px" viewBox="0 260.5 249.5 201" enable-background="new 0 260.5 249.5 201" xml:space="preserve">
<g>
	<path fill="#FFFFFF" d="M205.51,373.546l37.507,77.052c1.525,3.134-0.078,5.697-3.563,5.697H4.14c-3.485,0-5.089-2.563-3.563-5.697
		l37.508-77.052c0.597-1.226,2.201-2.229,3.563-2.229H73.81c0.991,0,2.33,0.621,2.978,1.37c2.182,2.521,4.405,4.985,6.621,7.424
		c2.105,2.314,4.221,4.659,6.32,7.059H51.561c-1.363,0-2.967,1.003-3.563,2.229l-24.847,51.045h197.292l-24.846-51.045
		c-0.596-1.226-2.2-2.229-3.564-2.229H153.78c2.099-2.399,4.215-4.744,6.32-7.059c2.223-2.446,4.458-4.905,6.645-7.427
		c0.648-0.748,1.984-1.367,2.973-1.367h32.229C203.31,371.317,204.913,372.319,205.51,373.546z M176.941,320.89
		c0,42.103-35.05,49.998-51.534,90.459c-1.34,3.287-5.968,3.271-7.308-0.016c-14.87-36.48-44.833-46.484-50.566-78.983
		c-5.645-31.993,16.507-63.332,48.85-66.39C149.276,262.851,176.941,288.64,176.941,320.89z M150.899,320.89
		c0-16.095-13.047-29.143-29.143-29.143c-16.095,0-29.142,13.048-29.142,29.143s13.047,29.143,29.142,29.143
		C137.852,350.032,150.899,336.984,150.899,320.89z"/>
</g>
</svg>
