<?xml version="1.0" encoding="utf-8"?>
<!-- Generator: Adobe Illustrator 16.0.0, SVG Export Plug-In . SVG Version: 6.00 Build 0)  -->
<!DOCTYPE svg PUBLIC "-//W3C//DTD SVG 1.1//EN" "http://www.w3.org/Graphics/SVG/1.1/DTD/svg11.dtd">
<svg version="1.1" id="Capa_1" xmlns="http://www.w3.org/2000/svg" xmlns:xlink="http://www.w3.org/1999/xlink" x="0px" y="0px"
	 width="512px" height="512px" viewBox="0 0 512 512" enable-background="new 0 0 512 512" xml:space="preserve">
<g>
	<path fill="#22B29F" d="M208.94,331.091l11.873,29.691c-11.499,4.595-22.967,8.096-34.155,10.437l-6.533-31.307
		C189.502,337.936,199.189,334.971,208.94,331.091z M113.72,369.439c11.718,3.373,24.065,5.187,36.688,5.373l0.502-31.996
		c-9.815-0.162-19.345-1.531-28.344-4.121L113.72,369.439z M365.686,313.592c9.224,1.818,18.222,4.975,26.752,9.378l14.695-28.436
		c-11.254-5.781-23.098-9.938-35.257-12.316L365.686,313.592z M298.935,287.344l9.569,30.499c9.775-3.063,19.438-4.999,28.745-5.748
		l-2.556-31.876C323.002,281.158,310.971,283.566,298.935,287.344z M247.564,311.407c-3.592,2.251-7.125,4.308-10.595,6.249
		l15.564,27.943c3.905-2.197,7.904-4.502,11.902-7.004c5.502-3.407,10.879-6.441,16.158-9.131l-14.533-28.495
		C260.064,304.033,253.873,307.502,247.564,311.407z M336.004,112c0,13.063-3.132,25.438-8.692,36.315l-71.31,139.683
		c0,0-71.875-140.843-72.155-141.433c-5.033-10.438-7.842-22.189-7.842-34.564c0-44.187,35.811-80,79.998-80
		C300.186,32.001,336.004,67.813,336.004,112z M304.003,112c0-26.5-21.502-48.001-48.001-48.001C229.501,63.999,208,85.5,208,112
		c0,26.498,21.501,47.999,48.001,47.999C282.501,159.999,304.003,138.498,304.003,112z M416.001,192h-75.058l-16.351,32.001h68.346
		l34.533,103.627l-11.031,12.188c11.751,10.618,17.842,20.403,17.876,20.438l3.373-2.029l29.908,89.773H44.375l32.064-96.091
		c1.125,0.781,1.998,1.531,3.248,2.309l17.002-27.063c-3.813-2.407-6.939-4.781-9.69-6.998L119.066,224h68.372
		c-6.782-13.252-12.125-23.718-16.343-32.001H96.001L0,480h512L416.001,192z"/>
</g>
</svg>
